<svg xmlns="http://www.w3.org/2000/svg" viewBox="0 0 800 450" width="100%" height="100%">
  <defs>
    <!-- 背景グラデーション -->
    <linearGradient id="bgGrad" x1="0%" y1="0%" x2="100%" y2="100%">
      <stop offset="0%" stop-color="#070714" />
      <stop offset="50%" stop-color="#0b0f19" />
      <stop offset="100%" stop-color="#140c1e" />
    </linearGradient>
    <!-- コーナーネオン漏れ光 -->
    <radialGradient id="cyanLeak" cx="0%" cy="0%" r="60%">
      <stop offset="0%" stop-color="#00f0ff" stop-opacity="0.25" />
      <stop offset="100%" stop-color="#00f0ff" stop-opacity="0" />
    </radialGradient>
    <radialGradient id="magentaLeak" cx="100%" cy="0%" r="60%">
      <stop offset="0%" stop-color="#ff007f" stop-opacity="0.2" />
      <stop offset="100%" stop-color="#ff007f" stop-opacity="0" />
    </radialGradient>
    <!-- ネオングロー効果 -->
    <filter id="glow" x="-30%" y="-30%" width="160%" height="160%">
      <feGaussianBlur stdDeviation="8" result="blur1" />
      <feGaussianBlur stdDeviation="3" result="blur2" />
      <feMerge>
        <feMergeNode in="blur1" />
        <feMergeNode in="blur2" />
        <feMergeNode in="SourceGraphic" />
      </feMerge>
    </filter>
  </defs>

  <!-- 背景 -->
  <rect width="400" height="250" fill="url(#bgGrad)" />
  
  <!-- コーナー発光オーラ -->
  <rect width="400" height="250" fill="url(#cyanLeak)" pointer-events-none="true" />
  <rect width="400" height="250" fill="url(#magentaLeak)" pointer-events-none="true" />

  <!-- 3Dパースペクティブグリッド（遠近感のある電脳空間） -->
  <g stroke="#1e293b" stroke-width="0.75" opacity="0.35">
    <!-- 地平線 -->
    <line x1="0" y1="120" x2="400" y2="120" stroke="#334155" stroke-width="1" />
    <!-- 消失点(200, 120)に向かうパースライン -->
    <line x1="-100" y1="250" x2="200" y2="120" />
    <line x1="-20" y1="250" x2="200" y2="120" />
    <line x1="60" y1="250" x2="200" y2="120" />
    <line x1="130" y1="250" x2="200" y2="120" />
    <line x1="200" y1="250" x2="200" y2="120" />
    <line x1="270" y1="250" x2="200" y2="120" />
    <line x1="340" y1="250" x2="200" y2="120" />
    <line x1="420" y1="250" x2="200" y2="120" />
    <line x1="500" y1="250" x2="200" y2="120" />
    
    <!-- 横方向のグリッド間隔 (手前ほど広く) -->
    <line x1="0" y1="130" x2="400" y2="130" />
    <line x1="0" y1="145" x2="400" y2="145" />
    <line x1="0" y1="165" x2="400" y2="165" />
    <line x1="0" y1="190" x2="400" y2="190" />
    <line x1="0" y1="220" x2="400" y2="220" />
  </g>
  
  <!-- 外枠ボーダー -->
  <rect width="400" height="250" fill="none" stroke="#334155" stroke-width="2" />
  
  <rect width="800" height="450" fill="url(#bgGrad)" />
  <!-- 薄いグリッド背景 -->
  <g stroke="#1e293b" stroke-width="1" opacity="0.3">
    <line x1="100" y1="0" x2="100" y2="450" /><line x1="200" y1="0" x2="200" y2="450" /><line x1="300" y1="0" x2="300" y2="450" /><line x1="400" y1="0" x2="400" y2="450" /><line x1="500" y1="0" x2="500" y2="450" /><line x1="600" y1="0" x2="600" y2="450" /><line x1="700" y1="0" x2="700" y2="450" />
  </g>
  <!-- クリックコア (フューシャ/ピンク) -->
  <g filter="url(#glowFuchsia)" transform="translate(400, 160)">
    <!-- 衝撃波/波紋 -->
    <circle cx="0" cy="0" r="80" fill="none" stroke="#d946ef" stroke-width="2" opacity="0.3" />
    <circle cx="0" cy="0" r="65" fill="none" stroke="#d946ef" stroke-width="3" opacity="0.5" />
    <circle cx="0" cy="0" r="50" fill="#d946ef" stroke="#ffffff" stroke-width="3" />
  </g>
  <!-- クリックする手/カーソル (シアン) -->
  <g filter="url(#glowCyan)" transform="translate(440, 190) rotate(-15)">
    <path d="M 0,0 L -20,40 L -40,30 L -25,-10 L 0,-60 L 15,-50 Z" fill="#22d3ee" stroke="#ffffff" stroke-width="2" />
    <!-- クリック時の光粒子 -->
    <circle cx="-10" cy="-70" r="4" fill="#ffffff" />
    <circle cx="20" cy="-60" r="3" fill="#22d3ee" />
    <circle cx="-35" cy="-50" r="3.5" fill="#22d3ee" />
  </g>
  <!-- テキスト -->
</svg>
