<svg xmlns="http://www.w3.org/2000/svg" viewBox="0 0 800 450" width="100%" height="100%">
  <defs>
    <!-- 背景グラデーション -->
    <linearGradient id="bgGrad" x1="0%" y1="0%" x2="100%" y2="100%">
      <stop offset="0%" stop-color="#070714" />
      <stop offset="50%" stop-color="#0b0f19" />
      <stop offset="100%" stop-color="#140c1e" />
    </linearGradient>
    <!-- コーナーネオン漏れ光 -->
    <radialGradient id="cyanLeak" cx="0%" cy="0%" r="60%">
      <stop offset="0%" stop-color="#00f0ff" stop-opacity="0.25" />
      <stop offset="100%" stop-color="#00f0ff" stop-opacity="0" />
    </radialGradient>
    <radialGradient id="magentaLeak" cx="100%" cy="0%" r="60%">
      <stop offset="0%" stop-color="#ff007f" stop-opacity="0.2" />
      <stop offset="100%" stop-color="#ff007f" stop-opacity="0" />
    </radialGradient>
    <!-- ネオングロー効果 -->
    <filter id="glow" x="-30%" y="-30%" width="160%" height="160%">
      <feGaussianBlur stdDeviation="8" result="blur1" />
      <feGaussianBlur stdDeviation="3" result="blur2" />
      <feMerge>
        <feMergeNode in="blur1" />
        <feMergeNode in="blur2" />
        <feMergeNode in="SourceGraphic" />
      </feMerge>
    </filter>
  </defs>

  <!-- 背景 -->
  <rect width="400" height="250" fill="url(#bgGrad)" />
  
  <!-- コーナー発光オーラ -->
  <rect width="400" height="250" fill="url(#cyanLeak)" pointer-events-none="true" />
  <rect width="400" height="250" fill="url(#magentaLeak)" pointer-events-none="true" />

  <!-- 3Dパースペクティブグリッド（遠近感のある電脳空間） -->
  <g stroke="#1e293b" stroke-width="0.75" opacity="0.35">
    <!-- 地平線 -->
    <line x1="0" y1="120" x2="400" y2="120" stroke="#334155" stroke-width="1" />
    <!-- 消失点(200, 120)に向かうパースライン -->
    <line x1="-100" y1="250" x2="200" y2="120" />
    <line x1="-20" y1="250" x2="200" y2="120" />
    <line x1="60" y1="250" x2="200" y2="120" />
    <line x1="130" y1="250" x2="200" y2="120" />
    <line x1="200" y1="250" x2="200" y2="120" />
    <line x1="270" y1="250" x2="200" y2="120" />
    <line x1="340" y1="250" x2="200" y2="120" />
    <line x1="420" y1="250" x2="200" y2="120" />
    <line x1="500" y1="250" x2="200" y2="120" />
    
    <!-- 横方向のグリッド間隔 (手前ほど広く) -->
    <line x1="0" y1="130" x2="400" y2="130" />
    <line x1="0" y1="145" x2="400" y2="145" />
    <line x1="0" y1="165" x2="400" y2="165" />
    <line x1="0" y1="190" x2="400" y2="190" />
    <line x1="0" y1="220" x2="400" y2="220" />
  </g>
  
  <!-- 外枠ボーダー -->
  <rect width="400" height="250" fill="none" stroke="#334155" stroke-width="2" />
  
  <rect width="800" height="450" fill="url(#bgGrad)" />

  <!-- 降下する数式 -->
  <g transform="translate(400, 100)" filter="url(#glowPurple)">
    <rect x="-70" y="-20" width="140" height="40" rx="6" fill="#1e1b4b" stroke="#a855f7" stroke-width="2" />
    <text x="0" y="6" font-family="Outfit, sans-serif" font-weight="extrabold" font-size="20" fill="#ffffff" text-anchor="middle">3 + 5</text>
  </g>

  <!-- 答えのノード -->
  <!-- 不正解ノード -->
  <g transform="translate(280, 220)" filter="url(#glowBlue)">
    <circle cx="0" cy="0" r="22" fill="#0f172a" stroke="#ec4899" stroke-width="2.5" />
    <text x="0" y="6" font-family="Outfit, sans-serif" font-weight="extrabold" font-size="18" fill="#ec4899" text-anchor="middle">6</text>
  </g>
  <!-- 正解ノード (被弾エフェクト) -->
  <g transform="translate(520, 220)" filter="url(#glowBlue)">
    <circle cx="0" cy="0" r="22" fill="#0f172a" stroke="#39ff14" filter="url(#glow)" stroke-width="3" />
    <text x="0" y="6" font-family="Outfit, sans-serif" font-weight="extrabold" font-size="18" fill="#39ff14" text-anchor="middle">8</text>
    <!-- 衝撃エフェクト -->
    <circle cx="0" cy="0" r="30" fill="none" stroke="#39ff14" filter="url(#glow)" stroke-width="1.5" stroke-dasharray="4 4" />
  </g>

  <!-- 下部のキャノン -->
  <g transform="translate(400, 310)" filter="url(#glowBlue)">
    <rect x="-20" y="0" width="40" height="20" rx="3" fill="#312e81" stroke="#6366f1" filter="url(#glow)" stroke-width="2" />
    <rect x="-4" y="-8" width="8" height="8" fill="#6366f1" />
    <!-- 弾道軌跡 -->
    <line x1="0" y1="-15" x2="80" y2="-75" stroke="#ffffff" stroke-width="3" stroke-dasharray="5 5" />
  </g>

  <!-- テキスト -->
</svg>
