<svg xmlns="http://www.w3.org/2000/svg" viewBox="0 0 800 450" width="100%" height="100%">
  <defs>
    <!-- 背景グラデーション -->
    <linearGradient id="bgGrad" x1="0%" y1="0%" x2="100%" y2="100%">
      <stop offset="0%" stop-color="#070714" />
      <stop offset="50%" stop-color="#0b0f19" />
      <stop offset="100%" stop-color="#140c1e" />
    </linearGradient>
    <!-- コーナーネオン漏れ光 -->
    <radialGradient id="cyanLeak" cx="0%" cy="0%" r="60%">
      <stop offset="0%" stop-color="#00f0ff" stop-opacity="0.25" />
      <stop offset="100%" stop-color="#00f0ff" stop-opacity="0" />
    </radialGradient>
    <radialGradient id="magentaLeak" cx="100%" cy="0%" r="60%">
      <stop offset="0%" stop-color="#ff007f" stop-opacity="0.2" />
      <stop offset="100%" stop-color="#ff007f" stop-opacity="0" />
    </radialGradient>
    <!-- ネオングロー効果 -->
    <filter id="glow" x="-30%" y="-30%" width="160%" height="160%">
      <feGaussianBlur stdDeviation="8" result="blur1" />
      <feGaussianBlur stdDeviation="3" result="blur2" />
      <feMerge>
        <feMergeNode in="blur1" />
        <feMergeNode in="blur2" />
        <feMergeNode in="SourceGraphic" />
      </feMerge>
    </filter>
  </defs>

  <!-- 背景 -->
  <rect width="400" height="250" fill="url(#bgGrad)" />
  
  <!-- コーナー発光オーラ -->
  <rect width="400" height="250" fill="url(#cyanLeak)" pointer-events-none="true" />
  <rect width="400" height="250" fill="url(#magentaLeak)" pointer-events-none="true" />

  <!-- 3Dパースペクティブグリッド（遠近感のある電脳空間） -->
  <g stroke="#1e293b" stroke-width="0.75" opacity="0.35">
    <!-- 地平線 -->
    <line x1="0" y1="120" x2="400" y2="120" stroke="#334155" stroke-width="1" />
    <!-- 消失点(200, 120)に向かうパースライン -->
    <line x1="-100" y1="250" x2="200" y2="120" />
    <line x1="-20" y1="250" x2="200" y2="120" />
    <line x1="60" y1="250" x2="200" y2="120" />
    <line x1="130" y1="250" x2="200" y2="120" />
    <line x1="200" y1="250" x2="200" y2="120" />
    <line x1="270" y1="250" x2="200" y2="120" />
    <line x1="340" y1="250" x2="200" y2="120" />
    <line x1="420" y1="250" x2="200" y2="120" />
    <line x1="500" y1="250" x2="200" y2="120" />
    
    <!-- 横方向のグリッド間隔 (手前ほど広く) -->
    <line x1="0" y1="130" x2="400" y2="130" />
    <line x1="0" y1="145" x2="400" y2="145" />
    <line x1="0" y1="165" x2="400" y2="165" />
    <line x1="0" y1="190" x2="400" y2="190" />
    <line x1="0" y1="220" x2="400" y2="220" />
  </g>
  
  <!-- 外枠ボーダー -->
  <rect width="400" height="250" fill="none" stroke="#334155" stroke-width="2" />
  
  <rect width="800" height="450" fill="url(#bgGrad)" />

  <!-- 外周の警告ボーダー -->
  <rect x="20" y="20" width="760" height="410" fill="none" stroke="#ff007f" filter="url(#glow)" stroke-width="2.5" opacity="0.8" />

  <!-- 重力源 (ブラックホール) -->
  <g transform="translate(400, 180)" filter="url(#glowFuchsia)">
    <circle cx="0" cy="0" r="30" fill="#020617" stroke="#ec4899" stroke-width="3" />
    <circle cx="0" cy="0" r="45" fill="none" stroke="rgba(236, 72, 153, 0.3)" stroke-width="1.5" />
    <circle cx="0" cy="0" r="60" fill="none" stroke="rgba(236, 72, 153, 0.1)" stroke-width="1" />
  </g>

  <!-- プレイヤー船と排気トレイル -->
  <g transform="translate(300, 100) rotate(15)" filter="url(#glowBlue)">
    <!-- 推進排気 -->
    <path d="M -12,-5 L -25,-10 L -12,0 L -25,10 L -12,5 Z" fill="#fbbf24" opacity="0.7" />
    <!-- 船体 -->
    <polygon points="12,0 -8,-8 -4,0 -8,8" fill="#0284c7" stroke="#00f0ff" filter="url(#glow)" stroke-width="2" />
  </g>

  <!-- 回収エネルギーコア -->
  <circle cx="480" cy="90" r="8" fill="#39ff14" filter="url(#glowBlue)" />
  <circle cx="320" cy="250" r="8" fill="#39ff14" filter="url(#glowBlue)" />

  <!-- テキスト -->
</svg>
