<svg xmlns="http://www.w3.org/2000/svg" viewBox="0 0 800 450" width="100%" height="100%">
  <defs>
    <!-- 背景グラデーション -->
    <linearGradient id="bgGrad" x1="0%" y1="0%" x2="100%" y2="100%">
      <stop offset="0%" stop-color="#070714" />
      <stop offset="50%" stop-color="#0b0f19" />
      <stop offset="100%" stop-color="#140c1e" />
    </linearGradient>
    <!-- コーナーネオン漏れ光 -->
    <radialGradient id="cyanLeak" cx="0%" cy="0%" r="60%">
      <stop offset="0%" stop-color="#00f0ff" stop-opacity="0.25" />
      <stop offset="100%" stop-color="#00f0ff" stop-opacity="0" />
    </radialGradient>
    <radialGradient id="magentaLeak" cx="100%" cy="0%" r="60%">
      <stop offset="0%" stop-color="#ff007f" stop-opacity="0.2" />
      <stop offset="100%" stop-color="#ff007f" stop-opacity="0" />
    </radialGradient>
    <!-- ネオングロー効果 -->
    <filter id="glow" x="-30%" y="-30%" width="160%" height="160%">
      <feGaussianBlur stdDeviation="8" result="blur1" />
      <feGaussianBlur stdDeviation="3" result="blur2" />
      <feMerge>
        <feMergeNode in="blur1" />
        <feMergeNode in="blur2" />
        <feMergeNode in="SourceGraphic" />
      </feMerge>
    </filter>
  </defs>

  <!-- 背景 -->
  <rect width="400" height="250" fill="url(#bgGrad)" />
  
  <!-- コーナー発光オーラ -->
  <rect width="400" height="250" fill="url(#cyanLeak)" pointer-events-none="true" />
  <rect width="400" height="250" fill="url(#magentaLeak)" pointer-events-none="true" />

  <!-- 3Dパースペクティブグリッド（遠近感のある電脳空間） -->
  <g stroke="#1e293b" stroke-width="0.75" opacity="0.35">
    <!-- 地平線 -->
    <line x1="0" y1="120" x2="400" y2="120" stroke="#334155" stroke-width="1" />
    <!-- 消失点(200, 120)に向かうパースライン -->
    <line x1="-100" y1="250" x2="200" y2="120" />
    <line x1="-20" y1="250" x2="200" y2="120" />
    <line x1="60" y1="250" x2="200" y2="120" />
    <line x1="130" y1="250" x2="200" y2="120" />
    <line x1="200" y1="250" x2="200" y2="120" />
    <line x1="270" y1="250" x2="200" y2="120" />
    <line x1="340" y1="250" x2="200" y2="120" />
    <line x1="420" y1="250" x2="200" y2="120" />
    <line x1="500" y1="250" x2="200" y2="120" />
    
    <!-- 横方向のグリッド間隔 (手前ほど広く) -->
    <line x1="0" y1="130" x2="400" y2="130" />
    <line x1="0" y1="145" x2="400" y2="145" />
    <line x1="0" y1="165" x2="400" y2="165" />
    <line x1="0" y1="190" x2="400" y2="190" />
    <line x1="0" y1="220" x2="400" y2="220" />
  </g>
  
  <!-- 外枠ボーダー -->
  <rect width="400" height="250" fill="none" stroke="#334155" stroke-width="2" />
  
  <rect width="800" height="450" fill="url(#bgGrad)" />

  <!-- グリッド背景 -->
  <g stroke="#1e293b" stroke-width="1" opacity="0.5">
    <rect x="250" y="70" width="300" height="240" rx="10" fill="none" stroke-width="2" />
    <!-- 縦線 -->
    <line x1="310" y1="70" x2="310" y2="310" />
    <line x1="370" y1="70" x2="370" y2="310" />
    <line x1="430" y1="70" x2="430" y2="310" />
    <line x1="490" y1="70" x2="490" y2="310" />
    <!-- 横線 -->
    <line x1="250" y1="130" x2="550" y2="130" />
    <line x1="250" y1="190" x2="550" y2="190" />
    <line x1="250" y1="250" x2="550" y2="250" />
  </g>

  <!-- 障害物ブロック -->
  <rect x="435" y="135" width="50" height="50" rx="6" fill="#7f1d1d" stroke="#ff007f" filter="url(#glow)" stroke-width="2" />
  <line x1="445" y1="145" x2="475" y2="175" stroke="#ff007f" filter="url(#glow)" stroke-width="2" />
  <line x1="475" y1="145" x2="445" y2="175" stroke="#ff007f" filter="url(#glow)" stroke-width="2" />

  <!-- パス (一筆書き) -->
  <g filter="url(#glowTeal)">
    <!-- パス線 -->
    <path d="M 280,100 L 280,220 L 400,220 L 400,100 L 340,100" fill="none" stroke="#2dd4bf" stroke-width="6" stroke-linecap="round" stroke-linejoin="round" />
    
    <!-- スタートノード -->
    <circle cx="280" cy="100" r="12" fill="#39ff14" />
    <!-- 進行中ノード -->
    <circle cx="340" cy="100" r="10" fill="#fbbf24" stroke="#ffffff" stroke-width="2" />
  </g>

  <!-- テキスト -->
</svg>
