<svg xmlns="http://www.w3.org/2000/svg" viewBox="0 0 800 450" width="100%" height="100%">
  <defs>
    <!-- 背景グラデーション -->
    <linearGradient id="bgGrad" x1="0%" y1="0%" x2="100%" y2="100%">
      <stop offset="0%" stop-color="#070714" />
      <stop offset="50%" stop-color="#0b0f19" />
      <stop offset="100%" stop-color="#140c1e" />
    </linearGradient>
    <!-- コーナーネオン漏れ光 -->
    <radialGradient id="cyanLeak" cx="0%" cy="0%" r="60%">
      <stop offset="0%" stop-color="#00f0ff" stop-opacity="0.25" />
      <stop offset="100%" stop-color="#00f0ff" stop-opacity="0" />
    </radialGradient>
    <radialGradient id="magentaLeak" cx="100%" cy="0%" r="60%">
      <stop offset="0%" stop-color="#ff007f" stop-opacity="0.2" />
      <stop offset="100%" stop-color="#ff007f" stop-opacity="0" />
    </radialGradient>
    <!-- ネオングロー効果 -->
    <filter id="glow" x="-30%" y="-30%" width="160%" height="160%">
      <feGaussianBlur stdDeviation="8" result="blur1" />
      <feGaussianBlur stdDeviation="3" result="blur2" />
      <feMerge>
        <feMergeNode in="blur1" />
        <feMergeNode in="blur2" />
        <feMergeNode in="SourceGraphic" />
      </feMerge>
    </filter>
  </defs>

  <!-- 背景 -->
  <rect width="400" height="250" fill="url(#bgGrad)" />
  
  <!-- コーナー発光オーラ -->
  <rect width="400" height="250" fill="url(#cyanLeak)" pointer-events-none="true" />
  <rect width="400" height="250" fill="url(#magentaLeak)" pointer-events-none="true" />

  <!-- 3Dパースペクティブグリッド（遠近感のある電脳空間） -->
  <g stroke="#1e293b" stroke-width="0.75" opacity="0.35">
    <!-- 地平線 -->
    <line x1="0" y1="120" x2="400" y2="120" stroke="#334155" stroke-width="1" />
    <!-- 消失点(200, 120)に向かうパースライン -->
    <line x1="-100" y1="250" x2="200" y2="120" />
    <line x1="-20" y1="250" x2="200" y2="120" />
    <line x1="60" y1="250" x2="200" y2="120" />
    <line x1="130" y1="250" x2="200" y2="120" />
    <line x1="200" y1="250" x2="200" y2="120" />
    <line x1="270" y1="250" x2="200" y2="120" />
    <line x1="340" y1="250" x2="200" y2="120" />
    <line x1="420" y1="250" x2="200" y2="120" />
    <line x1="500" y1="250" x2="200" y2="120" />
    
    <!-- 横方向のグリッド間隔 (手前ほど広く) -->
    <line x1="0" y1="130" x2="400" y2="130" />
    <line x1="0" y1="145" x2="400" y2="145" />
    <line x1="0" y1="165" x2="400" y2="165" />
    <line x1="0" y1="190" x2="400" y2="190" />
    <line x1="0" y1="220" x2="400" y2="220" />
  </g>
  
  <!-- 外枠ボーダー -->
  <rect width="400" height="250" fill="none" stroke="#334155" stroke-width="2" />
  

  <!-- Background -->
  <rect width="800" height="450" fill="url(#bgGrad)" />

  <!-- Cyber Grid Lines -->
  <g stroke="#1e293b" stroke-width="1" opacity="0.3">
    <!-- Radial lines from center -->
    <line x1="400" y1="225" x2="800" y2="450" />
    <line x1="400" y1="225" x2="0" y2="450" />
    <line x1="400" y1="225" x2="400" y2="0" />
    <line x1="400" y1="225" x2="400" y2="450" />
    <line x1="400" y1="225" x2="0" y2="225" />
    <line x1="400" y1="225" x2="800" y2="225" />
    <line x1="400" y1="225" x2="150" y2="0" />
    <line x1="400" y1="225" x2="650" y2="0" />
  </g>

  <!-- Outer Neon Rings (Hexagons) -->
  <!-- Ring 1 (Large) -->
  <polygon points="400,65 538,145 538,305 400,385 262,305" 
           fill="none" stroke="#a855f7" stroke-width="4" filter="url(#neonPink)" opacity="0.5" />
           
  <!-- Ring 2 (Medium with Gap) -->
  <g filter="url(#neonCyan)">
    <line x1="400" y1="115" x2="495" y2="170" stroke="#06b6d4" stroke-width="5" />
    <line x1="495" y1="170" x2="495" y2="280" stroke="#06b6d4" stroke-width="5" />
    <line x1="495" y1="280" x2="400" y2="335" stroke="#06b6d4" stroke-width="5" />
    <line x1="400" y1="335" x2="305" y2="280" stroke="#06b6d4" stroke-width="5" />
    <!-- Gap on the left-top side -->
    <line x1="305" y1="170" x2="305" y2="280" stroke="#06b6d4" stroke-width="5" />
  </g>

  <!-- Center Core -->
  <polygon points="400,195 426,210 426,240 400,255 374,240 374,210" 
           fill="rgba(6, 182, 212, 0.15)" stroke="#06b6d4" stroke-width="3" filter="url(#neonCyan)" />

  <!-- Player Dot/Triangle -->
  <!-- Placed orbiting at radius 50, angle 0.6 rad -->
  <g transform="translate(442, 201) rotate(35)" filter="url(#neonPink)">
    <polygon points="8,0 -6,-5 -3,0 -6,5" fill="#ff007f" />
  </g>

  <!-- Title Texts -->
</svg>
