<svg xmlns="http://www.w3.org/2000/svg" viewBox="0 0 400 300" width="100%" height="100%">
  <defs>
    <!-- 背景グラデーション -->
    <linearGradient id="bgGrad" x1="0%" y1="0%" x2="100%" y2="100%">
      <stop offset="0%" stop-color="#070714" />
      <stop offset="50%" stop-color="#0b0f19" />
      <stop offset="100%" stop-color="#140c1e" />
    </linearGradient>
    <!-- コーナーネオン漏れ光 -->
    <radialGradient id="cyanLeak" cx="0%" cy="0%" r="60%">
      <stop offset="0%" stop-color="#00f0ff" stop-opacity="0.25" />
      <stop offset="100%" stop-color="#00f0ff" stop-opacity="0" />
    </radialGradient>
    <radialGradient id="magentaLeak" cx="100%" cy="0%" r="60%">
      <stop offset="0%" stop-color="#ff007f" stop-opacity="0.2" />
      <stop offset="100%" stop-color="#ff007f" stop-opacity="0" />
    </radialGradient>
    <!-- ネオングロー効果 -->
    <filter id="glow" x="-30%" y="-30%" width="160%" height="160%">
      <feGaussianBlur stdDeviation="8" result="blur1" />
      <feGaussianBlur stdDeviation="3" result="blur2" />
      <feMerge>
        <feMergeNode in="blur1" />
        <feMergeNode in="blur2" />
        <feMergeNode in="SourceGraphic" />
      </feMerge>
    </filter>
  </defs>

  <!-- 背景 -->
  <rect width="400" height="250" fill="url(#bgGrad)" />
  
  <!-- コーナー発光オーラ -->
  <rect width="400" height="250" fill="url(#cyanLeak)" pointer-events-none="true" />
  <rect width="400" height="250" fill="url(#magentaLeak)" pointer-events-none="true" />

  <!-- 3Dパースペクティブグリッド（遠近感のある電脳空間） -->
  <g stroke="#1e293b" stroke-width="0.75" opacity="0.35">
    <!-- 地平線 -->
    <line x1="0" y1="120" x2="400" y2="120" stroke="#334155" stroke-width="1" />
    <!-- 消失点(200, 120)に向かうパースライン -->
    <line x1="-100" y1="250" x2="200" y2="120" />
    <line x1="-20" y1="250" x2="200" y2="120" />
    <line x1="60" y1="250" x2="200" y2="120" />
    <line x1="130" y1="250" x2="200" y2="120" />
    <line x1="200" y1="250" x2="200" y2="120" />
    <line x1="270" y1="250" x2="200" y2="120" />
    <line x1="340" y1="250" x2="200" y2="120" />
    <line x1="420" y1="250" x2="200" y2="120" />
    <line x1="500" y1="250" x2="200" y2="120" />
    
    <!-- 横方向のグリッド間隔 (手前ほど広く) -->
    <line x1="0" y1="130" x2="400" y2="130" />
    <line x1="0" y1="145" x2="400" y2="145" />
    <line x1="0" y1="165" x2="400" y2="165" />
    <line x1="0" y1="190" x2="400" y2="190" />
    <line x1="0" y1="220" x2="400" y2="220" />
  </g>
  
  <!-- 外枠ボーダー -->
  <rect width="400" height="250" fill="none" stroke="#334155" stroke-width="2" />
  
  <!-- Background -->
  <rect width="400" height="300" fill="#090d16" />
  <rect width="380" height="280" x="10" y="10" rx="15" fill="#0f172a" stroke="#ec4899" stroke-width="1.5" opacity="0.3" />

  <!-- Laser Grid Illustration -->
  <g transform="translate(100, 30)">
    <!-- Grid squares -->
    <rect x="0" y="0" width="200" height="130" fill="none" stroke="rgba(99,102,241,0.05)" stroke-width="1" />
    <line x1="66" y1="0" x2="66" y2="130" stroke="rgba(99,102,241,0.08)" />
    <line x1="133" y1="0" x2="133" y2="130" stroke="rgba(99,102,241,0.08)" />
    <line x1="0" y1="65" x2="200" y2="65" stroke="rgba(99,102,241,0.08)" />

    <!-- Transmitter (Red node) -->
    <circle cx="33" cy="98" r="10" fill="#ef4444" filter="url(#glow)" />

    <!-- Mirror 1 (slanted line in purple block) -->
    <g transform="translate(100, 65)">
      <rect x="8" y="8" width="48" height="48" rx="6" fill="#1e293b" stroke="#a855f7" stroke-width="1.5" />
      <line x1="16" y1="48" x2="48" y2="16" stroke="#c084fc" stroke-width="3.5" filter="url(#glow)" />
    </g>

    <!-- Target Node (Green) -->
    <circle cx="166" cy="33" r="9" fill="#39ff14" stroke="#ffffff" stroke-width="1" filter="url(#glow)" />

    <!-- Laser Path (Red neon line) -->
    <path d="M 33,98 L 124,98 L 124,33 L 166,33" fill="none" stroke="#ef4444" stroke-width="3" filter="url(#glow)" />
  </g>

  <!-- Typography -->
</svg>
