<svg xmlns="http://www.w3.org/2000/svg" viewBox="0 0 400 300" width="100%" height="100%">
  <defs>
    <!-- 背景グラデーション -->
    <linearGradient id="bgGrad" x1="0%" y1="0%" x2="100%" y2="100%">
      <stop offset="0%" stop-color="#070714" />
      <stop offset="50%" stop-color="#0b0f19" />
      <stop offset="100%" stop-color="#140c1e" />
    </linearGradient>
    <!-- コーナーネオン漏れ光 -->
    <radialGradient id="cyanLeak" cx="0%" cy="0%" r="60%">
      <stop offset="0%" stop-color="#00f0ff" stop-opacity="0.25" />
      <stop offset="100%" stop-color="#00f0ff" stop-opacity="0" />
    </radialGradient>
    <radialGradient id="magentaLeak" cx="100%" cy="0%" r="60%">
      <stop offset="0%" stop-color="#ff007f" stop-opacity="0.2" />
      <stop offset="100%" stop-color="#ff007f" stop-opacity="0" />
    </radialGradient>
    <!-- ネオングロー効果 -->
    <filter id="glow" x="-30%" y="-30%" width="160%" height="160%">
      <feGaussianBlur stdDeviation="8" result="blur1" />
      <feGaussianBlur stdDeviation="3" result="blur2" />
      <feMerge>
        <feMergeNode in="blur1" />
        <feMergeNode in="blur2" />
        <feMergeNode in="SourceGraphic" />
      </feMerge>
    </filter>
  </defs>

  <!-- 背景 -->
  <rect width="400" height="250" fill="url(#bgGrad)" />
  
  <!-- コーナー発光オーラ -->
  <rect width="400" height="250" fill="url(#cyanLeak)" pointer-events-none="true" />
  <rect width="400" height="250" fill="url(#magentaLeak)" pointer-events-none="true" />

  <!-- 3Dパースペクティブグリッド（遠近感のある電脳空間） -->
  <g stroke="#1e293b" stroke-width="0.75" opacity="0.35">
    <!-- 地平線 -->
    <line x1="0" y1="120" x2="400" y2="120" stroke="#334155" stroke-width="1" />
    <!-- 消失点(200, 120)に向かうパースライン -->
    <line x1="-100" y1="250" x2="200" y2="120" />
    <line x1="-20" y1="250" x2="200" y2="120" />
    <line x1="60" y1="250" x2="200" y2="120" />
    <line x1="130" y1="250" x2="200" y2="120" />
    <line x1="200" y1="250" x2="200" y2="120" />
    <line x1="270" y1="250" x2="200" y2="120" />
    <line x1="340" y1="250" x2="200" y2="120" />
    <line x1="420" y1="250" x2="200" y2="120" />
    <line x1="500" y1="250" x2="200" y2="120" />
    
    <!-- 横方向のグリッド間隔 (手前ほど広く) -->
    <line x1="0" y1="130" x2="400" y2="130" />
    <line x1="0" y1="145" x2="400" y2="145" />
    <line x1="0" y1="165" x2="400" y2="165" />
    <line x1="0" y1="190" x2="400" y2="190" />
    <line x1="0" y1="220" x2="400" y2="220" />
  </g>
  
  <!-- 外枠ボーダー -->
  <rect width="400" height="250" fill="none" stroke="#334155" stroke-width="2" />
  
  <rect width="400" height="300" fill="#090d16" />
  <rect width="380" height="280" x="10" y="10" rx="15" fill="#0f172a" stroke="#eab308" stroke-width="1.5" opacity="0.3" />

  <!-- 運行管理イラスト -->
  <g transform="translate(40, 30)">
    <!-- 十字路交差点 -->
    <rect width="45" height="140" x="137.5" y="0" fill="#111827" stroke="rgba(56, 189, 248, 0.2)" stroke-width="1.5" />
    <rect width="320" height="45" x="0" y="47.5" fill="#111827" stroke="rgba(56, 189, 248, 0.2)" stroke-width="1.5" />

    <!-- 道路中央線 (縦) -->
    <line x1="160" y1="0" x2="160" y2="47.5" stroke="rgba(255,255,255,0.15)" stroke-width="1.5" stroke-dasharray="4, 4" />
    <line x1="160" y1="92.5" x2="160" y2="140" stroke="rgba(255,255,255,0.15)" stroke-width="1.5" stroke-dasharray="4, 4" />

    <!-- 道路中央線 (横) -->
    <line x1="0" y1="70" x2="137.5" y2="70" stroke="rgba(255,255,255,0.15)" stroke-width="1.5" stroke-dasharray="4, 4" />
    <line x1="182.5" y1="70" x2="320" y2="70" stroke="rgba(255,255,255,0.15)" stroke-width="1.5" stroke-dasharray="4, 4" />

    <!-- ビークル 1 (青: 西から東へ進行中) -->
    <rect width="14" height="14" x="90" y="52" fill="#00f2fe" rx="3" filter="url(#glow)" />
    
    <!-- ビークル 2 (赤: 一時停止中, 交差点手前) -->
    <rect width="14" height="14" x="143" y="105" fill="#ff007f" rx="3" filter="url(#glow)" stroke="#ffffff" stroke-width="1" />
    
    <!-- ビークル 3 (黄: 北から南へ進行中、交差点を通過) -->
    <rect width="14" height="14" x="163" y="20" fill="#eab308" rx="3" filter="url(#glow)" />

    <!-- ビークル 4 (緑: 東から西へ進行中) -->
    <rect width="14" height="14" x="230" y="74" fill="#39ff14" rx="3" filter="url(#glow)" />
  </g>

  <!-- テキスト -->
</svg>
