<svg xmlns="http://www.w3.org/2000/svg" viewBox="0 0 100 100" width="100%" height="100%">
<defs>
    <!-- 背景グラデーション -->
    <linearGradient id="bgGrad" x1="0%" y1="0%" x2="100%" y2="100%">
      <stop offset="0%" stop-color="#070714" />
      <stop offset="50%" stop-color="#0b0f19" />
      <stop offset="100%" stop-color="#140c1e" />
    </linearGradient>
    <!-- コーナーネオン漏れ光 -->
    <radialGradient id="cyanLeak" cx="0%" cy="0%" r="60%">
      <stop offset="0%" stop-color="#00f0ff" stop-opacity="0.25" />
      <stop offset="100%" stop-color="#00f0ff" stop-opacity="0" />
    </radialGradient>
    <radialGradient id="magentaLeak" cx="100%" cy="0%" r="60%">
      <stop offset="0%" stop-color="#ff007f" stop-opacity="0.2" />
      <stop offset="100%" stop-color="#ff007f" stop-opacity="0" />
    </radialGradient>
    <!-- ネオングロー効果 -->
    <filter id="glow" x="-30%" y="-30%" width="160%" height="160%">
      <feGaussianBlur stdDeviation="8" result="blur1" />
      <feGaussianBlur stdDeviation="3" result="blur2" />
      <feMerge>
        <feMergeNode in="blur1" />
        <feMergeNode in="blur2" />
        <feMergeNode in="SourceGraphic" />
      </feMerge>
    </filter>
  </defs>

  <!-- 背景 -->
  <rect width="400" height="250" fill="url(#bgGrad)" />
  
  <!-- コーナー発光オーラ -->
  <rect width="400" height="250" fill="url(#cyanLeak)" pointer-events-none="true" />
  <rect width="400" height="250" fill="url(#magentaLeak)" pointer-events-none="true" />

  <!-- 3Dパースペクティブグリッド（遠近感のある電脳空間） -->
  <g stroke="#1e293b" stroke-width="0.75" opacity="0.35">
    <!-- 地平線 -->
    <line x1="0" y1="120" x2="400" y2="120" stroke="#334155" stroke-width="1" />
    <!-- 消失点(200, 120)に向かうパースライン -->
    <line x1="-100" y1="250" x2="200" y2="120" />
    <line x1="-20" y1="250" x2="200" y2="120" />
    <line x1="60" y1="250" x2="200" y2="120" />
    <line x1="130" y1="250" x2="200" y2="120" />
    <line x1="200" y1="250" x2="200" y2="120" />
    <line x1="270" y1="250" x2="200" y2="120" />
    <line x1="340" y1="250" x2="200" y2="120" />
    <line x1="420" y1="250" x2="200" y2="120" />
    <line x1="500" y1="250" x2="200" y2="120" />
    
    <!-- 横方向のグリッド間隔 (手前ほど広く) -->
    <line x1="0" y1="130" x2="400" y2="130" />
    <line x1="0" y1="145" x2="400" y2="145" />
    <line x1="0" y1="165" x2="400" y2="165" />
    <line x1="0" y1="190" x2="400" y2="190" />
    <line x1="0" y1="220" x2="400" y2="220" />
  </g>
  
  <!-- 外枠ボーダー -->
  <rect width="400" height="250" fill="none" stroke="#334155" stroke-width="2" />
  
  <rect width="100" height="100" fill="#0f172a"/>
  <!-- 六角形ハニカムのネオンデザイン -->
  <!-- 中心 -->
  <polygon points="50,38 60,44 60,56 50,62 40,56 40,44" fill="#0284c7" stroke="#0ea5e9" stroke-width="1.5"/>
  <!-- 右 -->
  <polygon points="68,28 78,34 78,46 68,52 58,46 58,34" fill="#1e293b" stroke="#334155" stroke-width="1"/>
  <!-- 右下 -->
  <polygon points="68,48 78,54 78,66 68,72 58,66 58,54" fill="#0d9488" stroke="#14b8a6" stroke-width="1"/>
  <!-- 左上 -->
  <polygon points="32,28 42,34 42,46 32,52 22,46 22,34" fill="#1e293b" stroke="#334155" stroke-width="1"/>
  <!-- 左下 -->
  <polygon points="32,48 42,54 42,66 32,72 22,66 22,54" fill="#eab308" stroke="#fbbf24" stroke-width="1"/>
  <!-- 上 -->
  <polygon points="50,18 60,24 60,36 50,42 40,36 40,24" fill="#0f172a" stroke="#00f0ff" filter="url(#glow)" stroke-width="1"/>
  <!-- 下 -->
  <polygon points="50,58 60,64 60,76 50,82 40,76 40,64" fill="#0f172a" stroke="#00f0ff" filter="url(#glow)" stroke-width="1"/>
</svg>
