<svg xmlns="http://www.w3.org/2000/svg" viewBox="0 0 800 450" width="100%" height="100%">
  <defs>
    <!-- 背景グラデーション -->
    <linearGradient id="bgGrad" x1="0%" y1="0%" x2="100%" y2="100%">
      <stop offset="0%" stop-color="#070714" />
      <stop offset="50%" stop-color="#0b0f19" />
      <stop offset="100%" stop-color="#140c1e" />
    </linearGradient>
    <!-- コーナーネオン漏れ光 -->
    <radialGradient id="cyanLeak" cx="0%" cy="0%" r="60%">
      <stop offset="0%" stop-color="#00f0ff" stop-opacity="0.25" />
      <stop offset="100%" stop-color="#00f0ff" stop-opacity="0" />
    </radialGradient>
    <radialGradient id="magentaLeak" cx="100%" cy="0%" r="60%">
      <stop offset="0%" stop-color="#ff007f" stop-opacity="0.2" />
      <stop offset="100%" stop-color="#ff007f" stop-opacity="0" />
    </radialGradient>
    <!-- ネオングロー効果 -->
    <filter id="glow" x="-30%" y="-30%" width="160%" height="160%">
      <feGaussianBlur stdDeviation="8" result="blur1" />
      <feGaussianBlur stdDeviation="3" result="blur2" />
      <feMerge>
        <feMergeNode in="blur1" />
        <feMergeNode in="blur2" />
        <feMergeNode in="SourceGraphic" />
      </feMerge>
    </filter>
  </defs>

  <!-- 背景 -->
  <rect width="400" height="250" fill="url(#bgGrad)" />
  
  <!-- コーナー発光オーラ -->
  <rect width="400" height="250" fill="url(#cyanLeak)" pointer-events-none="true" />
  <rect width="400" height="250" fill="url(#magentaLeak)" pointer-events-none="true" />

  <!-- 3Dパースペクティブグリッド（遠近感のある電脳空間） -->
  <g stroke="#1e293b" stroke-width="0.75" opacity="0.35">
    <!-- 地平線 -->
    <line x1="0" y1="120" x2="400" y2="120" stroke="#334155" stroke-width="1" />
    <!-- 消失点(200, 120)に向かうパースライン -->
    <line x1="-100" y1="250" x2="200" y2="120" />
    <line x1="-20" y1="250" x2="200" y2="120" />
    <line x1="60" y1="250" x2="200" y2="120" />
    <line x1="130" y1="250" x2="200" y2="120" />
    <line x1="200" y1="250" x2="200" y2="120" />
    <line x1="270" y1="250" x2="200" y2="120" />
    <line x1="340" y1="250" x2="200" y2="120" />
    <line x1="420" y1="250" x2="200" y2="120" />
    <line x1="500" y1="250" x2="200" y2="120" />
    
    <!-- 横方向のグリッド間隔 (手前ほど広く) -->
    <line x1="0" y1="130" x2="400" y2="130" />
    <line x1="0" y1="145" x2="400" y2="145" />
    <line x1="0" y1="165" x2="400" y2="165" />
    <line x1="0" y1="190" x2="400" y2="190" />
    <line x1="0" y1="220" x2="400" y2="220" />
  </g>
  
  <!-- 外枠ボーダー -->
  <rect width="400" height="250" fill="none" stroke="#334155" stroke-width="2" />
  
  <rect width="800" height="450" fill="url(#bgGrad)" />
  <!-- 柱 (シリンダー) -->
  <rect x="360" y="30" width="80" height="300" rx="10" fill="#1e293b" opacity="0.5" />
  <!-- ヘリックスらせん螺旋プレート (楕円で表現) -->
  <!-- プレート1 -->
  <path d="M 280,120 A 120,30 0 0 0 520,120" fill="none" stroke="#06b6d4" stroke-width="12" filter="url(#glowCyan)" stroke-linecap="round" />
  <!-- プレート2 -->
  <path d="M 280,200 A 120,30 0 0 0 420,225" fill="none" stroke="#06b6d4" stroke-width="12" stroke-linecap="round" />
  <path d="M 450,225 A 120,30 0 0 0 520,200" fill="none" stroke="#ef4444" stroke-width="12" stroke-linecap="round" /> <!-- 危険地帯 -->
  <!-- プレート3 -->
  <path d="M 280,280 A 120,30 0 0 0 520,280" fill="none" stroke="#06b6d4" stroke-width="12" filter="url(#glowCyan)" stroke-linecap="round" />
  <!-- 弾むボール (ネオンマゼンタ) -->
  <circle cx="435" cy="170" r="12" fill="#ec4899" stroke="#ffffff" stroke-width="2" filter="url(#glowPink)" />
  <!-- 落下エフェクト -->
  <line x1="435" y1="130" x2="435" y2="155" stroke="#ec4899" stroke-width="2.5" stroke-dasharray="4,4" filter="url(#glowPink)" />
  <!-- テキスト -->
</svg>