<svg xmlns="http://www.w3.org/2000/svg" viewBox="0 0 400 300" width="100%" height="100%">
  <defs>
    <!-- 背景グラデーション -->
    <linearGradient id="bgGrad" x1="0%" y1="0%" x2="100%" y2="100%">
      <stop offset="0%" stop-color="#070714" />
      <stop offset="50%" stop-color="#0b0f19" />
      <stop offset="100%" stop-color="#140c1e" />
    </linearGradient>
    <!-- コーナーネオン漏れ光 -->
    <radialGradient id="cyanLeak" cx="0%" cy="0%" r="60%">
      <stop offset="0%" stop-color="#00f0ff" stop-opacity="0.25" />
      <stop offset="100%" stop-color="#00f0ff" stop-opacity="0" />
    </radialGradient>
    <radialGradient id="magentaLeak" cx="100%" cy="0%" r="60%">
      <stop offset="0%" stop-color="#ff007f" stop-opacity="0.2" />
      <stop offset="100%" stop-color="#ff007f" stop-opacity="0" />
    </radialGradient>
    <!-- ネオングロー効果 -->
    <filter id="glow" x="-30%" y="-30%" width="160%" height="160%">
      <feGaussianBlur stdDeviation="8" result="blur1" />
      <feGaussianBlur stdDeviation="3" result="blur2" />
      <feMerge>
        <feMergeNode in="blur1" />
        <feMergeNode in="blur2" />
        <feMergeNode in="SourceGraphic" />
      </feMerge>
    </filter>
  </defs>

  <!-- 背景 -->
  <rect width="400" height="250" fill="url(#bgGrad)" />
  
  <!-- コーナー発光オーラ -->
  <rect width="400" height="250" fill="url(#cyanLeak)" pointer-events-none="true" />
  <rect width="400" height="250" fill="url(#magentaLeak)" pointer-events-none="true" />

  <!-- 3Dパースペクティブグリッド（遠近感のある電脳空間） -->
  <g stroke="#1e293b" stroke-width="0.75" opacity="0.35">
    <!-- 地平線 -->
    <line x1="0" y1="120" x2="400" y2="120" stroke="#334155" stroke-width="1" />
    <!-- 消失点(200, 120)に向かうパースライン -->
    <line x1="-100" y1="250" x2="200" y2="120" />
    <line x1="-20" y1="250" x2="200" y2="120" />
    <line x1="60" y1="250" x2="200" y2="120" />
    <line x1="130" y1="250" x2="200" y2="120" />
    <line x1="200" y1="250" x2="200" y2="120" />
    <line x1="270" y1="250" x2="200" y2="120" />
    <line x1="340" y1="250" x2="200" y2="120" />
    <line x1="420" y1="250" x2="200" y2="120" />
    <line x1="500" y1="250" x2="200" y2="120" />
    
    <!-- 横方向のグリッド間隔 (手前ほど広く) -->
    <line x1="0" y1="130" x2="400" y2="130" />
    <line x1="0" y1="145" x2="400" y2="145" />
    <line x1="0" y1="165" x2="400" y2="165" />
    <line x1="0" y1="190" x2="400" y2="190" />
    <line x1="0" y1="220" x2="400" y2="220" />
  </g>
  
  <!-- 外枠ボーダー -->
  <rect width="400" height="250" fill="none" stroke="#334155" stroke-width="2" />
  
  <rect width="400" height="300" fill="#090d16" />
  <rect width="380" height="280" x="10" y="10" rx="15" fill="#0f172a" stroke="#eab308" stroke-width="1.5" opacity="0.3" />

  <!-- サンドボックスシミュレーションイラスト -->
  <g transform="translate(60, 30)">
    <!-- シミュレーションボックス枠 -->
    <rect width="280" height="150" fill="none" stroke="rgba(255,255,255,0.05)" stroke-width="1.5" rx="4" />

    <!-- 壁 (Wall: 灰色) -->
    <rect width="80" height="12" x="100" y="60" fill="#475569" rx="2" />
    <rect width="50" height="12" x="30" y="90" fill="#475569" rx="2" />

    <!-- 砂 (Sand: 黄色) -->
    <!-- 砂の山 -->
    <path d="M 90, 150 L 120, 110 L 150, 150 Z" fill="#eab308" opacity="0.9" filter="url(#glow)" />
    <!-- 降る砂粒 -->
    <circle cx="120" cy="30" r="2.5" fill="#eab308" filter="url(#glow)" />
    <circle cx="121" cy="45" r="2.5" fill="#eab308" filter="url(#glow)" />
    <circle cx="118" cy="65" r="2.5" fill="#eab308" filter="url(#glow)" />
    <circle cx="125" cy="85" r="2.5" fill="#eab308" filter="url(#glow)" />

    <!-- 水 (Water: 青) -->
    <!-- 水面 -->
    <path d="M 0, 150 L 0, 130 Q 30, 125, 60, 132 L 60, 150 Z" fill="#00f0ff" opacity="0.85" filter="url(#glow)" />
    <!-- 流れる水 -->
    <path d="M 45, 95 Q 60, 110, 50, 130" fill="none" stroke="#00f0ff" stroke-width="4" stroke-linecap="round" filter="url(#glow)" />

    <!-- 火 (Fire: 赤) -->
    <!-- 火の粉 -->
    <circle cx="210" cy="140" r="3.5" fill="#ff007f" filter="url(#glow)" />
    <circle cx="205" cy="120" r="3.5" fill="#ff007f" filter="url(#glow)" />
    <circle cx="215" cy="100" r="3" fill="#eab308" filter="url(#glow)" />
    <circle cx="210" cy="80" r="2.5" fill="#eab308" filter="url(#glow)" />
  </g>

  <!-- テキスト -->
</svg>
