<svg xmlns="http://www.w3.org/2000/svg" viewBox="0 0 100 100" width="100%" height="100%">
<defs>
    <!-- 背景グラデーション -->
    <linearGradient id="bgGrad" x1="0%" y1="0%" x2="100%" y2="100%">
      <stop offset="0%" stop-color="#070714" />
      <stop offset="50%" stop-color="#0b0f19" />
      <stop offset="100%" stop-color="#140c1e" />
    </linearGradient>
    <!-- コーナーネオン漏れ光 -->
    <radialGradient id="cyanLeak" cx="0%" cy="0%" r="60%">
      <stop offset="0%" stop-color="#00f0ff" stop-opacity="0.25" />
      <stop offset="100%" stop-color="#00f0ff" stop-opacity="0" />
    </radialGradient>
    <radialGradient id="magentaLeak" cx="100%" cy="0%" r="60%">
      <stop offset="0%" stop-color="#ff007f" stop-opacity="0.2" />
      <stop offset="100%" stop-color="#ff007f" stop-opacity="0" />
    </radialGradient>
    <!-- ネオングロー効果 -->
    <filter id="glow" x="-30%" y="-30%" width="160%" height="160%">
      <feGaussianBlur stdDeviation="8" result="blur1" />
      <feGaussianBlur stdDeviation="3" result="blur2" />
      <feMerge>
        <feMergeNode in="blur1" />
        <feMergeNode in="blur2" />
        <feMergeNode in="SourceGraphic" />
      </feMerge>
    </filter>
  </defs>

  <!-- 背景 -->
  <rect width="400" height="250" fill="url(#bgGrad)" />
  
  <!-- コーナー発光オーラ -->
  <rect width="400" height="250" fill="url(#cyanLeak)" pointer-events-none="true" />
  <rect width="400" height="250" fill="url(#magentaLeak)" pointer-events-none="true" />

  <!-- 3Dパースペクティブグリッド（遠近感のある電脳空間） -->
  <g stroke="#1e293b" stroke-width="0.75" opacity="0.35">
    <!-- 地平線 -->
    <line x1="0" y1="120" x2="400" y2="120" stroke="#334155" stroke-width="1" />
    <!-- 消失点(200, 120)に向かうパースライン -->
    <line x1="-100" y1="250" x2="200" y2="120" />
    <line x1="-20" y1="250" x2="200" y2="120" />
    <line x1="60" y1="250" x2="200" y2="120" />
    <line x1="130" y1="250" x2="200" y2="120" />
    <line x1="200" y1="250" x2="200" y2="120" />
    <line x1="270" y1="250" x2="200" y2="120" />
    <line x1="340" y1="250" x2="200" y2="120" />
    <line x1="420" y1="250" x2="200" y2="120" />
    <line x1="500" y1="250" x2="200" y2="120" />
    
    <!-- 横方向のグリッド間隔 (手前ほど広く) -->
    <line x1="0" y1="130" x2="400" y2="130" />
    <line x1="0" y1="145" x2="400" y2="145" />
    <line x1="0" y1="165" x2="400" y2="165" />
    <line x1="0" y1="190" x2="400" y2="190" />
    <line x1="0" y1="220" x2="400" y2="220" />
  </g>
  
  <!-- 外枠ボーダー -->
  <rect width="400" height="250" fill="none" stroke="#334155" stroke-width="2" />
  
  <rect width="100" height="100" fill="#0f172a"/>
  <!-- 箱詰めパズルを表現するグリッドとブロックのネオン風デザイン -->
  <!-- 4x4 グリッド外枠 -->
  <rect x="25" y="25" width="50" height="50" fill="none" stroke="#475569" stroke-width="2"/>
  
  <!-- フィットしているブロック -->
  <!-- T型 -->
  <path d="M30 30 L45 30 L45 35 L40 35 L40 40 L35 40 L35 35 L30 35 Z" fill="#ec4899" opacity="0.8"/>
  <!-- O型 (2x2) -->
  <rect x="45" y="30" width="16" height="16" fill="#eab308" opacity="0.8"/>
  <!-- L型 -->
  <path d="M30 45 L35 45 L35 60 L45 60 L45 65 L30 65 Z" fill="#00f0ff" opacity="0.8"/>
  <!-- 隙間 -->
  <line x1="25" y1="37.5" x2="75" y2="37.5" stroke="#1e293b" stroke-width="1"/>
  <line x1="25" y1="50" x2="75" y2="50" stroke="#1e293b" stroke-width="1"/>
  <line x1="25" y1="62.5" x2="75" y2="62.5" stroke="#1e293b" stroke-width="1"/>
  <line x1="37.5" y1="25" x2="37.5" y2="75" stroke="#1e293b" stroke-width="1"/>
  <line x1="50" y1="25" x2="50" y2="75" stroke="#1e293b" stroke-width="1"/>
  <line x1="62.5" y1="25" x2="62.5" y2="75" stroke="#1e293b" stroke-width="1"/>
</svg>
