<svg xmlns="http://www.w3.org/2000/svg" viewBox="0 0 800 450" width="100%" height="100%">
  <defs>
    <!-- 背景グラデーション -->
    <linearGradient id="bgGrad" x1="0%" y1="0%" x2="100%" y2="100%">
      <stop offset="0%" stop-color="#070714" />
      <stop offset="50%" stop-color="#0b0f19" />
      <stop offset="100%" stop-color="#140c1e" />
    </linearGradient>
    <!-- コーナーネオン漏れ光 -->
    <radialGradient id="cyanLeak" cx="0%" cy="0%" r="60%">
      <stop offset="0%" stop-color="#00f0ff" stop-opacity="0.25" />
      <stop offset="100%" stop-color="#00f0ff" stop-opacity="0" />
    </radialGradient>
    <radialGradient id="magentaLeak" cx="100%" cy="0%" r="60%">
      <stop offset="0%" stop-color="#ff007f" stop-opacity="0.2" />
      <stop offset="100%" stop-color="#ff007f" stop-opacity="0" />
    </radialGradient>
    <!-- ネオングロー効果 -->
    <filter id="glow" x="-30%" y="-30%" width="160%" height="160%">
      <feGaussianBlur stdDeviation="8" result="blur1" />
      <feGaussianBlur stdDeviation="3" result="blur2" />
      <feMerge>
        <feMergeNode in="blur1" />
        <feMergeNode in="blur2" />
        <feMergeNode in="SourceGraphic" />
      </feMerge>
    </filter>
  </defs>

  <!-- 背景 -->
  <rect width="400" height="250" fill="url(#bgGrad)" />
  
  <!-- コーナー発光オーラ -->
  <rect width="400" height="250" fill="url(#cyanLeak)" pointer-events-none="true" />
  <rect width="400" height="250" fill="url(#magentaLeak)" pointer-events-none="true" />

  <!-- 3Dパースペクティブグリッド（遠近感のある電脳空間） -->
  <g stroke="#1e293b" stroke-width="0.75" opacity="0.35">
    <!-- 地平線 -->
    <line x1="0" y1="120" x2="400" y2="120" stroke="#334155" stroke-width="1" />
    <!-- 消失点(200, 120)に向かうパースライン -->
    <line x1="-100" y1="250" x2="200" y2="120" />
    <line x1="-20" y1="250" x2="200" y2="120" />
    <line x1="60" y1="250" x2="200" y2="120" />
    <line x1="130" y1="250" x2="200" y2="120" />
    <line x1="200" y1="250" x2="200" y2="120" />
    <line x1="270" y1="250" x2="200" y2="120" />
    <line x1="340" y1="250" x2="200" y2="120" />
    <line x1="420" y1="250" x2="200" y2="120" />
    <line x1="500" y1="250" x2="200" y2="120" />
    
    <!-- 横方向のグリッド間隔 (手前ほど広く) -->
    <line x1="0" y1="130" x2="400" y2="130" />
    <line x1="0" y1="145" x2="400" y2="145" />
    <line x1="0" y1="165" x2="400" y2="165" />
    <line x1="0" y1="190" x2="400" y2="190" />
    <line x1="0" y1="220" x2="400" y2="220" />
  </g>
  
  <!-- 外枠ボーダー -->
  <rect width="400" height="250" fill="none" stroke="#334155" stroke-width="2" />
  
  <rect width="800" height="450" fill="url(#bgGrad)" />
  <!-- Hexagon grid lines -->
  <g stroke="#1e293b" stroke-width="2" fill="none">
    <polygon points="350,150 400,120 450,150 450,210 400,240 350,210" />
    <polygon points="450,150 500,120 550,150 550,210 500,240 450,210" />
    <polygon points="250,150 300,120 350,150 350,210 300,240 250,210" />
    <polygon points="400,240 450,210 500,240 500,300 450,330 400,300" />
    <polygon points="300,240 350,210 400,240 400,300 350,330 300,300" />
  </g>
  <!-- Flow Line 1 (Cyan) -->
  <path d="M 300,180 L 350,210 L 400,180 L 450,210 L 500,180" fill="none" stroke="#06b6d4" stroke-width="8" stroke-linecap="round" filter="url(#glowCyan)" />
  <circle cx="300" cy="180" r="10" fill="#06b6d4" filter="url(#glowCyan)" />
  <circle cx="500" cy="180" r="10" fill="#06b6d4" filter="url(#glowCyan)" />
  <!-- Flow Line 2 (Fuchsia) -->
  <path d="M 350,270 L 400,300 L 450,270" fill="none" stroke="#d946ef" stroke-width="8" stroke-linecap="round" filter="url(#glowFuchsia)" />
  <circle cx="350" cy="270" r="10" fill="#d946ef" filter="url(#glowFuchsia)" />
  <circle cx="450" cy="270" r="10" fill="#d946ef" filter="url(#glowFuchsia)" />
</svg>
