<svg xmlns="http://www.w3.org/2000/svg" viewBox="0 0 800 450" width="100%" height="100%">
  <defs>
    <!-- 背景グラデーション -->
    <linearGradient id="bgGrad" x1="0%" y1="0%" x2="100%" y2="100%">
      <stop offset="0%" stop-color="#070714" />
      <stop offset="50%" stop-color="#0b0f19" />
      <stop offset="100%" stop-color="#140c1e" />
    </linearGradient>
    <!-- コーナーネオン漏れ光 -->
    <radialGradient id="cyanLeak" cx="0%" cy="0%" r="60%">
      <stop offset="0%" stop-color="#00f0ff" stop-opacity="0.25" />
      <stop offset="100%" stop-color="#00f0ff" stop-opacity="0" />
    </radialGradient>
    <radialGradient id="magentaLeak" cx="100%" cy="0%" r="60%">
      <stop offset="0%" stop-color="#ff007f" stop-opacity="0.2" />
      <stop offset="100%" stop-color="#ff007f" stop-opacity="0" />
    </radialGradient>
    <!-- ネオングロー効果 -->
    <filter id="glow" x="-30%" y="-30%" width="160%" height="160%">
      <feGaussianBlur stdDeviation="8" result="blur1" />
      <feGaussianBlur stdDeviation="3" result="blur2" />
      <feMerge>
        <feMergeNode in="blur1" />
        <feMergeNode in="blur2" />
        <feMergeNode in="SourceGraphic" />
      </feMerge>
    </filter>
  </defs>

  <!-- 背景 -->
  <rect width="400" height="250" fill="url(#bgGrad)" />
  
  <!-- コーナー発光オーラ -->
  <rect width="400" height="250" fill="url(#cyanLeak)" pointer-events-none="true" />
  <rect width="400" height="250" fill="url(#magentaLeak)" pointer-events-none="true" />

  <!-- 3Dパースペクティブグリッド（遠近感のある電脳空間） -->
  <g stroke="#1e293b" stroke-width="0.75" opacity="0.35">
    <!-- 地平線 -->
    <line x1="0" y1="120" x2="400" y2="120" stroke="#334155" stroke-width="1" />
    <!-- 消失点(200, 120)に向かうパースライン -->
    <line x1="-100" y1="250" x2="200" y2="120" />
    <line x1="-20" y1="250" x2="200" y2="120" />
    <line x1="60" y1="250" x2="200" y2="120" />
    <line x1="130" y1="250" x2="200" y2="120" />
    <line x1="200" y1="250" x2="200" y2="120" />
    <line x1="270" y1="250" x2="200" y2="120" />
    <line x1="340" y1="250" x2="200" y2="120" />
    <line x1="420" y1="250" x2="200" y2="120" />
    <line x1="500" y1="250" x2="200" y2="120" />
    
    <!-- 横方向のグリッド間隔 (手前ほど広く) -->
    <line x1="0" y1="130" x2="400" y2="130" />
    <line x1="0" y1="145" x2="400" y2="145" />
    <line x1="0" y1="165" x2="400" y2="165" />
    <line x1="0" y1="190" x2="400" y2="190" />
    <line x1="0" y1="220" x2="400" y2="220" />
  </g>
  
  <!-- 外枠ボーダー -->
  <rect width="400" height="250" fill="none" stroke="#334155" stroke-width="2" />
  
  <rect width="800" height="450" fill="url(#bgGrad)" />
  <!-- 3Dパースペクティブウォール -->
  <path d="M 100,50 L 300,180 L 300,270 L 100,400 Z" fill="#020617" stroke="#06b6d4" stroke-width="3" filter="url(#glowCyan)" />
  <path d="M 700,50 L 500,180 L 500,270 L 700,400 Z" fill="#020617" stroke="#06b6d4" stroke-width="3" filter="url(#glowCyan)" />
  <path d="M 300,180 L 400,210 L 400,240 L 300,270 Z" fill="#020617" stroke="#06b6d4" stroke-width="2" />
  <path d="M 500,180 L 400,210 L 400,240 L 500,270 Z" fill="#020617" stroke="#06b6d4" stroke-width="2" />
  <!-- 天井と床のグリッドライン -->
  <line x1="100" y1="50" x2="700" y2="50" stroke="#1e293b" stroke-width="2" />
  <line x1="100" y1="400" x2="700" y2="400" stroke="#1e293b" stroke-width="2" />
  <line x1="300" y1="180" x2="500" y2="180" stroke="#1e293b" stroke-width="1.5" />
  <line x1="300" y1="270" x2="500" y2="270" stroke="#1e293b" stroke-width="1.5" />
  <!-- 出口ポータル -->
  <ellipse cx="400" cy="225" rx="15" ry="30" fill="#db46ef" opacity="0.3" filter="url(#glowPink)" />
  <ellipse cx="400" cy="225" rx="8" ry="18" fill="#ffffff" filter="url(#glowPink)" />
  <!-- テキスト -->
</svg>