<svg xmlns="http://www.w3.org/2000/svg" viewBox="0 0 800 450" width="100%" height="100%">
  <defs>
    <!-- 背景グラデーション -->
    <linearGradient id="bgGrad" x1="0%" y1="0%" x2="100%" y2="100%">
      <stop offset="0%" stop-color="#070714" />
      <stop offset="50%" stop-color="#0b0f19" />
      <stop offset="100%" stop-color="#140c1e" />
    </linearGradient>
    <!-- コーナーネオン漏れ光 -->
    <radialGradient id="cyanLeak" cx="0%" cy="0%" r="60%">
      <stop offset="0%" stop-color="#00f0ff" stop-opacity="0.25" />
      <stop offset="100%" stop-color="#00f0ff" stop-opacity="0" />
    </radialGradient>
    <radialGradient id="magentaLeak" cx="100%" cy="0%" r="60%">
      <stop offset="0%" stop-color="#ff007f" stop-opacity="0.2" />
      <stop offset="100%" stop-color="#ff007f" stop-opacity="0" />
    </radialGradient>
    <!-- ネオングロー効果 -->
    <filter id="glow" x="-30%" y="-30%" width="160%" height="160%">
      <feGaussianBlur stdDeviation="8" result="blur1" />
      <feGaussianBlur stdDeviation="3" result="blur2" />
      <feMerge>
        <feMergeNode in="blur1" />
        <feMergeNode in="blur2" />
        <feMergeNode in="SourceGraphic" />
      </feMerge>
    </filter>
  </defs>

  <!-- 背景 -->
  <rect width="400" height="250" fill="url(#bgGrad)" />
  
  <!-- コーナー発光オーラ -->
  <rect width="400" height="250" fill="url(#cyanLeak)" pointer-events-none="true" />
  <rect width="400" height="250" fill="url(#magentaLeak)" pointer-events-none="true" />

  <!-- 3Dパースペクティブグリッド（遠近感のある電脳空間） -->
  <g stroke="#1e293b" stroke-width="0.75" opacity="0.35">
    <!-- 地平線 -->
    <line x1="0" y1="120" x2="400" y2="120" stroke="#334155" stroke-width="1" />
    <!-- 消失点(200, 120)に向かうパースライン -->
    <line x1="-100" y1="250" x2="200" y2="120" />
    <line x1="-20" y1="250" x2="200" y2="120" />
    <line x1="60" y1="250" x2="200" y2="120" />
    <line x1="130" y1="250" x2="200" y2="120" />
    <line x1="200" y1="250" x2="200" y2="120" />
    <line x1="270" y1="250" x2="200" y2="120" />
    <line x1="340" y1="250" x2="200" y2="120" />
    <line x1="420" y1="250" x2="200" y2="120" />
    <line x1="500" y1="250" x2="200" y2="120" />
    
    <!-- 横方向のグリッド間隔 (手前ほど広く) -->
    <line x1="0" y1="130" x2="400" y2="130" />
    <line x1="0" y1="145" x2="400" y2="145" />
    <line x1="0" y1="165" x2="400" y2="165" />
    <line x1="0" y1="190" x2="400" y2="190" />
    <line x1="0" y1="220" x2="400" y2="220" />
  </g>
  
  <!-- 外枠ボーダー -->
  <rect width="400" height="250" fill="none" stroke="#334155" stroke-width="2" />
  
  <rect width="800" height="450" fill="url(#bgGrad)" />

  <!-- VSマーク -->
  <text x="400" y="190" font-family="Outfit, sans-serif" font-weight="900" font-size="48" fill="#fbbf24" text-anchor="middle" filter="url(#glowFuchsia)">VS</text>

  <!-- 左：プレイヤーカード (スペードのA) -->
  <g transform="translate(240, 90) rotate(-8)" filter="url(#glowBlue)">
    <rect width="105" height="155" rx="8" fill="#0f172a" stroke="#00f0ff" filter="url(#glow)" stroke-width="3" />
    <text x="18" y="32" font-family="Outfit, sans-serif" font-weight="extrabold" font-size="26" fill="#00f0ff">A</text>
    <path d="M 52.5,58 C 52.5,58 41,72 41,78.5 C 41,84 46,88.5 51.5,88.5 C 52.5,88.5 53.5,85.5 54.5,83.5 L 55.5,96 L 49.5,96 L 49.5,100 L 61.5,100 L 61.5,96 L 55.5,96 L 54.5,83.5 C 55.5,85.5 56.5,88.5 57.5,88.5 C 63,88.5 68,84 68,78.5 C 68,72 56.5,58 56.5,58 Z" fill="#00f0ff" />
  </g>

  <!-- 右：ディーラーカード (ハートのK) -->
  <g transform="translate(455, 90) rotate(8)" filter="url(#glowFuchsia)">
    <rect width="105" height="155" rx="8" fill="#0f172a" stroke="#ec4899" stroke-width="3" />
    <text x="18" y="32" font-family="Outfit, sans-serif" font-weight="extrabold" font-size="26" fill="#ec4899">K</text>
    <path d="M 52.5,62 C 52.5,62 42.5,72 42.5,79 C 42.5,85 47,89.5 52.5,89.5 C 58,89.5 62.5,85 62.5,79 C 62.5,72 52.5,62 52.5,62 Z" fill="#ec4899" />
  </g>

  <!-- テキスト -->
</svg>
