<svg xmlns="http://www.w3.org/2000/svg" viewBox="0 0 400 300" width="100%" height="100%">
  <defs>
    <!-- 背景グラデーション -->
    <linearGradient id="bgGrad" x1="0%" y1="0%" x2="100%" y2="100%">
      <stop offset="0%" stop-color="#070714" />
      <stop offset="50%" stop-color="#0b0f19" />
      <stop offset="100%" stop-color="#140c1e" />
    </linearGradient>
    <!-- コーナーネオン漏れ光 -->
    <radialGradient id="cyanLeak" cx="0%" cy="0%" r="60%">
      <stop offset="0%" stop-color="#00f0ff" stop-opacity="0.25" />
      <stop offset="100%" stop-color="#00f0ff" stop-opacity="0" />
    </radialGradient>
    <radialGradient id="magentaLeak" cx="100%" cy="0%" r="60%">
      <stop offset="0%" stop-color="#ff007f" stop-opacity="0.2" />
      <stop offset="100%" stop-color="#ff007f" stop-opacity="0" />
    </radialGradient>
    <!-- ネオングロー効果 -->
    <filter id="glow" x="-30%" y="-30%" width="160%" height="160%">
      <feGaussianBlur stdDeviation="8" result="blur1" />
      <feGaussianBlur stdDeviation="3" result="blur2" />
      <feMerge>
        <feMergeNode in="blur1" />
        <feMergeNode in="blur2" />
        <feMergeNode in="SourceGraphic" />
      </feMerge>
    </filter>
  </defs>

  <!-- 背景 -->
  <rect width="400" height="250" fill="url(#bgGrad)" />
  
  <!-- コーナー発光オーラ -->
  <rect width="400" height="250" fill="url(#cyanLeak)" pointer-events-none="true" />
  <rect width="400" height="250" fill="url(#magentaLeak)" pointer-events-none="true" />

  <!-- 3Dパースペクティブグリッド（遠近感のある電脳空間） -->
  <g stroke="#1e293b" stroke-width="0.75" opacity="0.35">
    <!-- 地平線 -->
    <line x1="0" y1="120" x2="400" y2="120" stroke="#334155" stroke-width="1" />
    <!-- 消失点(200, 120)に向かうパースライン -->
    <line x1="-100" y1="250" x2="200" y2="120" />
    <line x1="-20" y1="250" x2="200" y2="120" />
    <line x1="60" y1="250" x2="200" y2="120" />
    <line x1="130" y1="250" x2="200" y2="120" />
    <line x1="200" y1="250" x2="200" y2="120" />
    <line x1="270" y1="250" x2="200" y2="120" />
    <line x1="340" y1="250" x2="200" y2="120" />
    <line x1="420" y1="250" x2="200" y2="120" />
    <line x1="500" y1="250" x2="200" y2="120" />
    
    <!-- 横方向のグリッド間隔 (手前ほど広く) -->
    <line x1="0" y1="130" x2="400" y2="130" />
    <line x1="0" y1="145" x2="400" y2="145" />
    <line x1="0" y1="165" x2="400" y2="165" />
    <line x1="0" y1="190" x2="400" y2="190" />
    <line x1="0" y1="220" x2="400" y2="220" />
  </g>
  
  <!-- 外枠ボーダー -->
  <rect width="400" height="250" fill="none" stroke="#334155" stroke-width="2" />
  
  <!-- Background -->
  <rect width="400" height="300" fill="#090d16" />
  <rect width="380" height="280" x="10" y="10" rx="15" fill="#0f172a" stroke="#06b6d4" stroke-width="1.5" opacity="0.3" />

  <!-- Cards Grid Illustration -->
  <g transform="translate(80, 35)">
    <!-- Card 1: Ace of Spades -->
    <g transform="translate(15, 15)">
      <rect width="55" height="80" rx="6" fill="#1e293b" stroke="#00f0ff" stroke-width="2" filter="url(#glow)" />
      <text x="8" y="20" font-family="'Outfit', system-ui, sans-serif" font-size="14" font-weight="extrabold" fill="#00f0ff">A</text>
      <text x="27.5" y="55" font-family="sans-serif" font-size="28" fill="#00f0ff" text-anchor="middle">♠</text>
    </g>

    <!-- Card 2: King of Hearts -->
    <g transform="translate(90, 15)">
      <rect width="55" height="80" rx="6" fill="#1e293b" stroke="#ff007f" stroke-width="2" filter="url(#glow)" />
      <text x="8" y="20" font-family="'Outfit', system-ui, sans-serif" font-size="14" font-weight="extrabold" fill="#ff007f">K</text>
      <text x="27.5" y="55" font-family="sans-serif" font-size="28" fill="#ff007f" text-anchor="middle">♥</text>
    </g>

    <!-- Card 3: Empty slot -->
    <g transform="translate(165, 15)">
      <rect width="55" height="80" rx="6" fill="none" stroke="rgba(99, 102, 241, 0.3)" stroke-width="1.5" stroke-dasharray="4, 2" />
      <text x="27.5" y="48" font-family="sans-serif" font-size="20" fill="rgba(99, 102, 241, 0.4)" text-anchor="middle">+</text>
    </g>

    <!-- Score connections -->
    <line x1="0" y1="110" x2="240" y2="110" stroke="rgba(255,255,255,0.05)" stroke-width="1" />
  </g>

  <!-- Typography -->
</svg>
