<svg xmlns="http://www.w3.org/2000/svg" viewBox="0 0 800 450" width="100%" height="100%">
  <defs>
    <!-- 背景グラデーション -->
    <linearGradient id="bgGrad" x1="0%" y1="0%" x2="100%" y2="100%">
      <stop offset="0%" stop-color="#070714" />
      <stop offset="50%" stop-color="#0b0f19" />
      <stop offset="100%" stop-color="#140c1e" />
    </linearGradient>
    <!-- コーナーネオン漏れ光 -->
    <radialGradient id="cyanLeak" cx="0%" cy="0%" r="60%">
      <stop offset="0%" stop-color="#00f0ff" stop-opacity="0.25" />
      <stop offset="100%" stop-color="#00f0ff" stop-opacity="0" />
    </radialGradient>
    <radialGradient id="magentaLeak" cx="100%" cy="0%" r="60%">
      <stop offset="0%" stop-color="#ff007f" stop-opacity="0.2" />
      <stop offset="100%" stop-color="#ff007f" stop-opacity="0" />
    </radialGradient>
    <!-- ネオングロー効果 -->
    <filter id="glow" x="-30%" y="-30%" width="160%" height="160%">
      <feGaussianBlur stdDeviation="8" result="blur1" />
      <feGaussianBlur stdDeviation="3" result="blur2" />
      <feMerge>
        <feMergeNode in="blur1" />
        <feMergeNode in="blur2" />
        <feMergeNode in="SourceGraphic" />
      </feMerge>
    </filter>
  </defs>

  <!-- 背景 -->
  <rect width="400" height="250" fill="url(#bgGrad)" />
  
  <!-- コーナー発光オーラ -->
  <rect width="400" height="250" fill="url(#cyanLeak)" pointer-events-none="true" />
  <rect width="400" height="250" fill="url(#magentaLeak)" pointer-events-none="true" />

  <!-- 3Dパースペクティブグリッド（遠近感のある電脳空間） -->
  <g stroke="#1e293b" stroke-width="0.75" opacity="0.35">
    <!-- 地平線 -->
    <line x1="0" y1="120" x2="400" y2="120" stroke="#334155" stroke-width="1" />
    <!-- 消失点(200, 120)に向かうパースライン -->
    <line x1="-100" y1="250" x2="200" y2="120" />
    <line x1="-20" y1="250" x2="200" y2="120" />
    <line x1="60" y1="250" x2="200" y2="120" />
    <line x1="130" y1="250" x2="200" y2="120" />
    <line x1="200" y1="250" x2="200" y2="120" />
    <line x1="270" y1="250" x2="200" y2="120" />
    <line x1="340" y1="250" x2="200" y2="120" />
    <line x1="420" y1="250" x2="200" y2="120" />
    <line x1="500" y1="250" x2="200" y2="120" />
    
    <!-- 横方向のグリッド間隔 (手前ほど広く) -->
    <line x1="0" y1="130" x2="400" y2="130" />
    <line x1="0" y1="145" x2="400" y2="145" />
    <line x1="0" y1="165" x2="400" y2="165" />
    <line x1="0" y1="190" x2="400" y2="190" />
    <line x1="0" y1="220" x2="400" y2="220" />
  </g>
  
  <!-- 外枠ボーダー -->
  <rect width="400" height="250" fill="none" stroke="#334155" stroke-width="2" />
  

  <!-- 背景 -->
  <rect width="800" height="450" fill="url(#bgGrad)" />

  <!-- グリッドパターン -->
  <g stroke="#1e293b" stroke-width="1" opacity="0.2">
    <!-- 縦線 -->
    <line x1="100" y1="0" x2="100" y2="450" />
    <line x1="200" y1="0" x2="200" y2="450" />
    <line x1="300" y1="0" x2="300" y2="450" />
    <line x1="400" y1="0" x2="400" y2="450" />
    <line x1="500" y1="0" x2="500" y2="450" />
    <line x1="600" y1="0" x2="600" y2="450" />
    <line x1="700" y1="0" x2="700" y2="450" />
    <!-- 横線 -->
    <line x1="0" y1="90" x2="800" y2="90" />
    <line x1="0" y1="180" x2="800" y2="180" />
    <line x1="0" y1="270" x2="800" y2="270" />
    <line x1="0" y1="360" x2="800" y2="360" />
  </g>

  <!-- ゴルフコース境界 (ネオンの壁) -->
  <path d="M 100,320 L 700,320 M 100,100 L 700,100" fill="none" stroke="#00f0ff" stroke-width="4" filter="url(#glowBlue)" />

  <!-- 障害物ブロック -->
  <rect x="360" y="140" width="80" height="140" rx="8" fill="#1e293b" stroke="#00f0ff" filter="url(#glow)" stroke-width="2" />

  <!-- カップ（ホール） -->
  <circle cx="620" cy="210" r="24" fill="#0f172a" stroke="#ef4444" stroke-width="3" filter="url(#glowRed)" />
  <circle cx="620" cy="210" r="10" fill="#ef4444" filter="url(#glowRed)" />
  <!-- フラッグ (ピン) -->
  <line x1="620" y1="210" x2="620" y2="130" stroke="#f8fafc" stroke-width="3" />
  <polygon points="620,130 650,145 620,160" fill="#ef4444" />

  <!-- ボール (白い丸) と 軌道 -->
  <!-- 狙いガイドライン -->
  <line x1="200" y1="210" x2="110" y2="210" stroke="#39ff14" stroke-width="3" stroke-dasharray="8 6" filter="url(#glowGreen)" />
  <circle cx="200" cy="210" r="12" fill="#ffffff" filter="url(#glowBlue)" />
  <!-- 引っ張りインジケータ -->
  <circle cx="290" cy="210" r="6" fill="#39ff14" opacity="0.6" />
  <line x1="200" y1="210" x2="290" y2="210" stroke="#39ff14" filter="url(#glow)" stroke-width="2" opacity="0.4" />

  <!-- タイトルテキスト -->
</svg>
