<svg xmlns="http://www.w3.org/2000/svg" viewBox="0 0 400 300" width="100%" height="100%">
  <defs>
    <!-- 背景グラデーション -->
    <linearGradient id="bgGrad" x1="0%" y1="0%" x2="100%" y2="100%">
      <stop offset="0%" stop-color="#070714" />
      <stop offset="50%" stop-color="#0b0f19" />
      <stop offset="100%" stop-color="#140c1e" />
    </linearGradient>
    <!-- コーナーネオン漏れ光 -->
    <radialGradient id="cyanLeak" cx="0%" cy="0%" r="60%">
      <stop offset="0%" stop-color="#00f0ff" stop-opacity="0.25" />
      <stop offset="100%" stop-color="#00f0ff" stop-opacity="0" />
    </radialGradient>
    <radialGradient id="magentaLeak" cx="100%" cy="0%" r="60%">
      <stop offset="0%" stop-color="#ff007f" stop-opacity="0.2" />
      <stop offset="100%" stop-color="#ff007f" stop-opacity="0" />
    </radialGradient>
    <!-- ネオングロー効果 -->
    <filter id="glow" x="-30%" y="-30%" width="160%" height="160%">
      <feGaussianBlur stdDeviation="8" result="blur1" />
      <feGaussianBlur stdDeviation="3" result="blur2" />
      <feMerge>
        <feMergeNode in="blur1" />
        <feMergeNode in="blur2" />
        <feMergeNode in="SourceGraphic" />
      </feMerge>
    </filter>
  </defs>

  <!-- 背景 -->
  <rect width="400" height="250" fill="url(#bgGrad)" />
  
  <!-- コーナー発光オーラ -->
  <rect width="400" height="250" fill="url(#cyanLeak)" pointer-events-none="true" />
  <rect width="400" height="250" fill="url(#magentaLeak)" pointer-events-none="true" />

  <!-- 3Dパースペクティブグリッド（遠近感のある電脳空間） -->
  <g stroke="#1e293b" stroke-width="0.75" opacity="0.35">
    <!-- 地平線 -->
    <line x1="0" y1="120" x2="400" y2="120" stroke="#334155" stroke-width="1" />
    <!-- 消失点(200, 120)に向かうパースライン -->
    <line x1="-100" y1="250" x2="200" y2="120" />
    <line x1="-20" y1="250" x2="200" y2="120" />
    <line x1="60" y1="250" x2="200" y2="120" />
    <line x1="130" y1="250" x2="200" y2="120" />
    <line x1="200" y1="250" x2="200" y2="120" />
    <line x1="270" y1="250" x2="200" y2="120" />
    <line x1="340" y1="250" x2="200" y2="120" />
    <line x1="420" y1="250" x2="200" y2="120" />
    <line x1="500" y1="250" x2="200" y2="120" />
    
    <!-- 横方向のグリッド間隔 (手前ほど広く) -->
    <line x1="0" y1="130" x2="400" y2="130" />
    <line x1="0" y1="145" x2="400" y2="145" />
    <line x1="0" y1="165" x2="400" y2="165" />
    <line x1="0" y1="190" x2="400" y2="190" />
    <line x1="0" y1="220" x2="400" y2="220" />
  </g>
  
  <!-- 外枠ボーダー -->
  <rect width="400" height="250" fill="none" stroke="#334155" stroke-width="2" />
  
  <rect width="400" height="300" fill="#090d16" />
  <rect width="380" height="280" x="10" y="10" rx="15" fill="#0f172a" stroke="#a855f7" stroke-width="1.5" opacity="0.3" />

  <!-- Qix ゲームプレイ概念図 -->
  <g transform="translate(125, 25)">
    <!-- メインフレーム -->
    <rect width="150" height="150" fill="none" stroke="#a855f7" stroke-width="2" filter="url(#glow)" />
    
    <!-- 既に占領されたエリア (紫色の塗り) -->
    <path d="M 0,0 L 150,0 L 150,50 L 100,50 L 100,100 L 0,100 Z" fill="rgba(168, 85, 247, 0.25)" stroke="none" />
    <path d="M 150,50 L 100,50 L 100,100 L 0,100" fill="none" stroke="#a855f7" stroke-width="1.5" />

    <!-- ドロー中の線 (シアン) -->
    <!-- (50, 100) -> (50, 125) -> (75, 125) (進行中) -->
    <path d="M 50,100 L 50,125 L 90,125" fill="none" stroke="#00ffff" stroke-width="2" filter="url(#glow)" />
    
    <!-- 自機コア (白) -->
    <circle cx="90" cy="125" r="4" fill="#ffffff" filter="url(#glow)" />

    <!-- Qixの脅威 (赤の幾何学ライン) -->
    <g stroke="#ef4444" stroke-width="1.5" filter="url(#glow)">
      <!-- 幾何学的幾何線 -->
      <line x1="110" y1="110" x2="140" y2="70" opacity="0.4" />
      <line x1="112" y1="112" x2="138" y2="72" opacity="0.7" />
      <line x1="115" y1="115" x2="135" y2="75" />
      <line x1="135" y1="75" x2="80" y2="60" />
      <line x1="138" y1="72" x2="82" y2="62" opacity="0.7" />
    </g>
  </g>

  <!-- タイトル -->
</svg>
