<svg xmlns="http://www.w3.org/2000/svg" viewBox="0 0 400 300" width="100%" height="100%">
  <defs>
    <!-- 背景グラデーション -->
    <linearGradient id="bgGrad" x1="0%" y1="0%" x2="100%" y2="100%">
      <stop offset="0%" stop-color="#070714" />
      <stop offset="50%" stop-color="#0b0f19" />
      <stop offset="100%" stop-color="#140c1e" />
    </linearGradient>
    <!-- コーナーネオン漏れ光 -->
    <radialGradient id="cyanLeak" cx="0%" cy="0%" r="60%">
      <stop offset="0%" stop-color="#00f0ff" stop-opacity="0.25" />
      <stop offset="100%" stop-color="#00f0ff" stop-opacity="0" />
    </radialGradient>
    <radialGradient id="magentaLeak" cx="100%" cy="0%" r="60%">
      <stop offset="0%" stop-color="#ff007f" stop-opacity="0.2" />
      <stop offset="100%" stop-color="#ff007f" stop-opacity="0" />
    </radialGradient>
    <!-- ネオングロー効果 -->
    <filter id="glow" x="-30%" y="-30%" width="160%" height="160%">
      <feGaussianBlur stdDeviation="8" result="blur1" />
      <feGaussianBlur stdDeviation="3" result="blur2" />
      <feMerge>
        <feMergeNode in="blur1" />
        <feMergeNode in="blur2" />
        <feMergeNode in="SourceGraphic" />
      </feMerge>
    </filter>
  </defs>

  <!-- 背景 -->
  <rect width="400" height="250" fill="url(#bgGrad)" />
  
  <!-- コーナー発光オーラ -->
  <rect width="400" height="250" fill="url(#cyanLeak)" pointer-events-none="true" />
  <rect width="400" height="250" fill="url(#magentaLeak)" pointer-events-none="true" />

  <!-- 3Dパースペクティブグリッド（遠近感のある電脳空間） -->
  <g stroke="#1e293b" stroke-width="0.75" opacity="0.35">
    <!-- 地平線 -->
    <line x1="0" y1="120" x2="400" y2="120" stroke="#334155" stroke-width="1" />
    <!-- 消失点(200, 120)に向かうパースライン -->
    <line x1="-100" y1="250" x2="200" y2="120" />
    <line x1="-20" y1="250" x2="200" y2="120" />
    <line x1="60" y1="250" x2="200" y2="120" />
    <line x1="130" y1="250" x2="200" y2="120" />
    <line x1="200" y1="250" x2="200" y2="120" />
    <line x1="270" y1="250" x2="200" y2="120" />
    <line x1="340" y1="250" x2="200" y2="120" />
    <line x1="420" y1="250" x2="200" y2="120" />
    <line x1="500" y1="250" x2="200" y2="120" />
    
    <!-- 横方向のグリッド間隔 (手前ほど広く) -->
    <line x1="0" y1="130" x2="400" y2="130" />
    <line x1="0" y1="145" x2="400" y2="145" />
    <line x1="0" y1="165" x2="400" y2="165" />
    <line x1="0" y1="190" x2="400" y2="190" />
    <line x1="0" y1="220" x2="400" y2="220" />
  </g>
  
  <!-- 外枠ボーダー -->
  <rect width="400" height="250" fill="none" stroke="#334155" stroke-width="2" />
  
  <rect width="400" height="300" fill="#090d16" />
  <rect width="380" height="280" x="10" y="10" rx="15" fill="#0f172a" stroke="#a855f7" stroke-width="1.5" opacity="0.3" />

  <g transform="translate(40, 30)">
    <rect width="320" height="130" fill="none" stroke="rgba(255,255,255,0.05)" stroke-width="1" rx="4" />
    <!-- 3x3 pattern dots grid and path line -->
    <g transform="translate(90, 15)">
      <!-- Line path connecting nodes -->
      <path d="M 20,20 L 70,20 L 70,70 L 120,70" fill="none" stroke="#06b6d4" stroke-width="4.5" stroke-linecap="round" stroke-linejoin="round" filter="url(#glow)" />
      <!-- Dots -->
      <circle cx="20" cy="20" r="8" fill="#06b6d4" filter="url(#glow)" />
      <circle cx="70" cy="20" r="8" fill="#06b6d4" filter="url(#glow)" />
      <circle cx="120" cy="20" r="8" fill="#1e293b" stroke="#a855f7" stroke-width="1.5" />
      <circle cx="20" cy="70" r="8" fill="#1e293b" stroke="#a855f7" stroke-width="1.5" />
      <circle cx="70" cy="70" r="8" fill="#06b6d4" filter="url(#glow)" />
      <circle cx="120" cy="70" r="8" fill="#06b6d4" filter="url(#glow)" />
      <circle cx="20" cy="120" r="8" fill="#1e293b" stroke="#a855f7" stroke-width="1.5" />
      <circle cx="70" cy="120" r="8" fill="#1e293b" stroke="#a855f7" stroke-width="1.5" />
      <circle cx="120" cy="120" r="8" fill="#1e293b" stroke="#a855f7" stroke-width="1.5" />
      <!-- Sequence numbers -->
      <text x="20" y="24" font-family="'Outfit', sans-serif" font-size="9" fill="#ffffff" font-weight="bold" text-anchor="middle">1</text>
      <text x="70" y="24" font-family="'Outfit', sans-serif" font-size="9" fill="#ffffff" font-weight="bold" text-anchor="middle">2</text>
      <text x="70" y="74" font-family="'Outfit', sans-serif" font-size="9" fill="#ffffff" font-weight="bold" text-anchor="middle">3</text>
      <text x="120" y="74" font-family="'Outfit', sans-serif" font-size="9" fill="#ffffff" font-weight="bold" text-anchor="middle">4</text>
    </g>
  </g>
</svg>
