<svg xmlns="http://www.w3.org/2000/svg" viewBox="0 0 400 300" width="100%" height="100%">
  <defs>
    <!-- 背景グラデーション -->
    <linearGradient id="bgGrad" x1="0%" y1="0%" x2="100%" y2="100%">
      <stop offset="0%" stop-color="#070714" />
      <stop offset="50%" stop-color="#0b0f19" />
      <stop offset="100%" stop-color="#140c1e" />
    </linearGradient>
    <!-- コーナーネオン漏れ光 -->
    <radialGradient id="cyanLeak" cx="0%" cy="0%" r="60%">
      <stop offset="0%" stop-color="#00f0ff" stop-opacity="0.25" />
      <stop offset="100%" stop-color="#00f0ff" stop-opacity="0" />
    </radialGradient>
    <radialGradient id="magentaLeak" cx="100%" cy="0%" r="60%">
      <stop offset="0%" stop-color="#ff007f" stop-opacity="0.2" />
      <stop offset="100%" stop-color="#ff007f" stop-opacity="0" />
    </radialGradient>
    <!-- ネオングロー効果 -->
    <filter id="glow" x="-30%" y="-30%" width="160%" height="160%">
      <feGaussianBlur stdDeviation="8" result="blur1" />
      <feGaussianBlur stdDeviation="3" result="blur2" />
      <feMerge>
        <feMergeNode in="blur1" />
        <feMergeNode in="blur2" />
        <feMergeNode in="SourceGraphic" />
      </feMerge>
    </filter>
  </defs>

  <!-- 背景 -->
  <rect width="400" height="250" fill="url(#bgGrad)" />
  
  <!-- コーナー発光オーラ -->
  <rect width="400" height="250" fill="url(#cyanLeak)" pointer-events-none="true" />
  <rect width="400" height="250" fill="url(#magentaLeak)" pointer-events-none="true" />

  <!-- 3Dパースペクティブグリッド（遠近感のある電脳空間） -->
  <g stroke="#1e293b" stroke-width="0.75" opacity="0.35">
    <!-- 地平線 -->
    <line x1="0" y1="120" x2="400" y2="120" stroke="#334155" stroke-width="1" />
    <!-- 消失点(200, 120)に向かうパースライン -->
    <line x1="-100" y1="250" x2="200" y2="120" />
    <line x1="-20" y1="250" x2="200" y2="120" />
    <line x1="60" y1="250" x2="200" y2="120" />
    <line x1="130" y1="250" x2="200" y2="120" />
    <line x1="200" y1="250" x2="200" y2="120" />
    <line x1="270" y1="250" x2="200" y2="120" />
    <line x1="340" y1="250" x2="200" y2="120" />
    <line x1="420" y1="250" x2="200" y2="120" />
    <line x1="500" y1="250" x2="200" y2="120" />
    
    <!-- 横方向のグリッド間隔 (手前ほど広く) -->
    <line x1="0" y1="130" x2="400" y2="130" />
    <line x1="0" y1="145" x2="400" y2="145" />
    <line x1="0" y1="165" x2="400" y2="165" />
    <line x1="0" y1="190" x2="400" y2="190" />
    <line x1="0" y1="220" x2="400" y2="220" />
  </g>
  
  <!-- 外枠ボーダー -->
  <rect width="400" height="250" fill="none" stroke="#334155" stroke-width="2" />
  
  <rect width="400" height="300" fill="#090d16" />
  <rect width="380" height="280" x="10" y="10" rx="15" fill="#0f172a" stroke="#3b82f6" stroke-width="1.5" opacity="0.3" />

  <!-- カーリングハウスとストーン -->
  <g transform="translate(40, 30)">
    <!-- ハウス (同心円) -->
    <circle cx="280" cy="80" r="70" fill="none" stroke="rgba(59, 130, 246, 0.3)" stroke-width="6" />
    <circle cx="280" cy="80" r="45" fill="none" stroke="rgba(255, 255, 255, 0.15)" stroke-width="4" />
    <circle cx="280" cy="80" r="20" fill="rgba(239, 68, 68, 0.15)" stroke="rgba(239, 68, 68, 0.6)" stroke-width="4" filter="url(#glow)" />

    <!-- センターライン -->
    <line x1="0" y1="80" x2="320" y2="80" stroke="#1e293b" stroke-width="1" />

    <!-- 敵ストーン (赤) -->
    <circle cx="260" cy="65" r="12" fill="#ef4444" filter="url(#glow)" />
    <circle cx="260" cy="65" r="5" fill="#ffffff" opacity="0.3" />

    <!-- 自ストーン (青) とその軌跡 -->
    <path d="M 40,110 Q 120,95 200,85" fill="none" stroke="rgba(56, 189, 248, 0.4)" stroke-width="2" stroke-dasharray="4,4" />
    <circle cx="200" cy="85" r="12" fill="#3b82f6" filter="url(#glow)" />
    <circle cx="200" cy="85" r="5" fill="#ffffff" opacity="0.8" />
    
    <!-- スイープ用ブラシの抽象イラスト -->
    <line x1="170" y1="65" x2="190" y2="75" stroke="#00f0ff" stroke-width="2.5" filter="url(#glow)" />
    <line x1="180" y1="70" x2="160" y2="50" stroke="#00f0ff" stroke-width="1.5" />
  </g>

  <!-- タイトル -->
</svg>
