<svg xmlns="http://www.w3.org/2000/svg" viewBox="0 0 800 450" width="100%" height="100%">
  <defs>
    <!-- 背景グラデーション -->
    <linearGradient id="bgGrad" x1="0%" y1="0%" x2="100%" y2="100%">
      <stop offset="0%" stop-color="#070714" />
      <stop offset="50%" stop-color="#0b0f19" />
      <stop offset="100%" stop-color="#140c1e" />
    </linearGradient>
    <!-- コーナーネオン漏れ光 -->
    <radialGradient id="cyanLeak" cx="0%" cy="0%" r="60%">
      <stop offset="0%" stop-color="#00f0ff" stop-opacity="0.25" />
      <stop offset="100%" stop-color="#00f0ff" stop-opacity="0" />
    </radialGradient>
    <radialGradient id="magentaLeak" cx="100%" cy="0%" r="60%">
      <stop offset="0%" stop-color="#ff007f" stop-opacity="0.2" />
      <stop offset="100%" stop-color="#ff007f" stop-opacity="0" />
    </radialGradient>
    <!-- ネオングロー効果 -->
    <filter id="glow" x="-30%" y="-30%" width="160%" height="160%">
      <feGaussianBlur stdDeviation="8" result="blur1" />
      <feGaussianBlur stdDeviation="3" result="blur2" />
      <feMerge>
        <feMergeNode in="blur1" />
        <feMergeNode in="blur2" />
        <feMergeNode in="SourceGraphic" />
      </feMerge>
    </filter>
  </defs>

  <!-- 背景 -->
  <rect width="400" height="250" fill="url(#bgGrad)" />
  
  <!-- コーナー発光オーラ -->
  <rect width="400" height="250" fill="url(#cyanLeak)" pointer-events-none="true" />
  <rect width="400" height="250" fill="url(#magentaLeak)" pointer-events-none="true" />

  <!-- 3Dパースペクティブグリッド（遠近感のある電脳空間） -->
  <g stroke="#1e293b" stroke-width="0.75" opacity="0.35">
    <!-- 地平線 -->
    <line x1="0" y1="120" x2="400" y2="120" stroke="#334155" stroke-width="1" />
    <!-- 消失点(200, 120)に向かうパースライン -->
    <line x1="-100" y1="250" x2="200" y2="120" />
    <line x1="-20" y1="250" x2="200" y2="120" />
    <line x1="60" y1="250" x2="200" y2="120" />
    <line x1="130" y1="250" x2="200" y2="120" />
    <line x1="200" y1="250" x2="200" y2="120" />
    <line x1="270" y1="250" x2="200" y2="120" />
    <line x1="340" y1="250" x2="200" y2="120" />
    <line x1="420" y1="250" x2="200" y2="120" />
    <line x1="500" y1="250" x2="200" y2="120" />
    
    <!-- 横方向のグリッド間隔 (手前ほど広く) -->
    <line x1="0" y1="130" x2="400" y2="130" />
    <line x1="0" y1="145" x2="400" y2="145" />
    <line x1="0" y1="165" x2="400" y2="165" />
    <line x1="0" y1="190" x2="400" y2="190" />
    <line x1="0" y1="220" x2="400" y2="220" />
  </g>
  
  <!-- 外枠ボーダー -->
  <rect width="400" height="250" fill="none" stroke="#334155" stroke-width="2" />
  
  <rect width="800" height="450" fill="url(#bgGrad)" />
  
  <!-- Stars/Debris background -->
  <circle cx="120" cy="80" r="1.5" fill="#ffffff" opacity="0.6" />
  <circle cx="280" cy="150" r="1" fill="#ffffff" opacity="0.4" />
  <circle cx="680" cy="90" r="2" fill="#ffffff" opacity="0.7" />
  <circle cx="450" cy="60" r="1.5" fill="#ffffff" opacity="0.5" />
  <circle cx="580" cy="200" r="1" fill="#ffffff" opacity="0.3" />

  <!-- Neon Mountains / Terrain -->
  <path d="M 0,400 L 150,300 L 300,380 L 450,220 L 520,290 L 600,280 L 700,380 L 800,320" fill="none" stroke="#00f0ff" stroke-width="3" filter="url(#glowSky)" />
  
  <!-- Landing Pad -->
  <rect x="520" y="285" width="80" height="10" rx="3" fill="#39ff14" filter="url(#glowGreen)" />
  <line x1="500" y1="290" x2="620" y2="290" stroke="#34d399" stroke-width="2" stroke-dasharray="6,4" />

  <!-- Lander Craft -->
  <g transform="translate(560, 160) rotate(-15)">
    <!-- Thruster Flame -->
    <path d="M -10,25 L 0,45 L 10,25 Z" fill="#f59e0b" filter="url(#glowAmber)" />
    <!-- Lander Body -->
    <polygon points="0,-18 16,-6 10,18 -10,18 -16,-6" fill="#1e293b" stroke="#00f0ff" stroke-width="2.5" filter="url(#glowSky)" />
    <!-- Cabin Window -->
    <circle cx="0" cy="-3" r="6" fill="#0284c7" stroke="#00f0ff" filter="url(#glow)" stroke-width="1.5" />
    <!-- Lander legs -->
    <line x1="-10" y1="18" x2="-22" y2="32" stroke="#e2e8f0" stroke-width="2" />
    <line x1="10" y1="18" x2="22" y2="32" stroke="#e2e8f0" stroke-width="2" />
    <!-- Foot pads -->
    <rect x="-26" y="32" width="8" height="3" fill="#ffffff" />
    <rect x="18" y="32" width="8" height="3" fill="#ffffff" />
  </g>

  <!-- Text Labels -->
</svg>
