<svg xmlns="http://www.w3.org/2000/svg" viewBox="0 0 800 450" width="100%" height="100%">
  <defs>
    <!-- 背景グラデーション -->
    <linearGradient id="bgGrad" x1="0%" y1="0%" x2="100%" y2="100%">
      <stop offset="0%" stop-color="#070714" />
      <stop offset="50%" stop-color="#0b0f19" />
      <stop offset="100%" stop-color="#140c1e" />
    </linearGradient>
    <!-- コーナーネオン漏れ光 -->
    <radialGradient id="cyanLeak" cx="0%" cy="0%" r="60%">
      <stop offset="0%" stop-color="#00f0ff" stop-opacity="0.25" />
      <stop offset="100%" stop-color="#00f0ff" stop-opacity="0" />
    </radialGradient>
    <radialGradient id="magentaLeak" cx="100%" cy="0%" r="60%">
      <stop offset="0%" stop-color="#ff007f" stop-opacity="0.2" />
      <stop offset="100%" stop-color="#ff007f" stop-opacity="0" />
    </radialGradient>
    <!-- ネオングロー効果 -->
    <filter id="glow" x="-30%" y="-30%" width="160%" height="160%">
      <feGaussianBlur stdDeviation="8" result="blur1" />
      <feGaussianBlur stdDeviation="3" result="blur2" />
      <feMerge>
        <feMergeNode in="blur1" />
        <feMergeNode in="blur2" />
        <feMergeNode in="SourceGraphic" />
      </feMerge>
    </filter>
  </defs>

  <!-- 背景 -->
  <rect width="400" height="250" fill="url(#bgGrad)" />
  
  <!-- コーナー発光オーラ -->
  <rect width="400" height="250" fill="url(#cyanLeak)" pointer-events-none="true" />
  <rect width="400" height="250" fill="url(#magentaLeak)" pointer-events-none="true" />

  <!-- 3Dパースペクティブグリッド（遠近感のある電脳空間） -->
  <g stroke="#1e293b" stroke-width="0.75" opacity="0.35">
    <!-- 地平線 -->
    <line x1="0" y1="120" x2="400" y2="120" stroke="#334155" stroke-width="1" />
    <!-- 消失点(200, 120)に向かうパースライン -->
    <line x1="-100" y1="250" x2="200" y2="120" />
    <line x1="-20" y1="250" x2="200" y2="120" />
    <line x1="60" y1="250" x2="200" y2="120" />
    <line x1="130" y1="250" x2="200" y2="120" />
    <line x1="200" y1="250" x2="200" y2="120" />
    <line x1="270" y1="250" x2="200" y2="120" />
    <line x1="340" y1="250" x2="200" y2="120" />
    <line x1="420" y1="250" x2="200" y2="120" />
    <line x1="500" y1="250" x2="200" y2="120" />
    
    <!-- 横方向のグリッド間隔 (手前ほど広く) -->
    <line x1="0" y1="130" x2="400" y2="130" />
    <line x1="0" y1="145" x2="400" y2="145" />
    <line x1="0" y1="165" x2="400" y2="165" />
    <line x1="0" y1="190" x2="400" y2="190" />
    <line x1="0" y1="220" x2="400" y2="220" />
  </g>
  
  <!-- 外枠ボーダー -->
  <rect width="400" height="250" fill="none" stroke="#334155" stroke-width="2" />
  
  <rect width="800" height="450" fill="url(#bgGrad)" />
  
  <g transform="translate(400, 160)">
    <!-- Core -->
    <circle cx="0" cy="0" r="16" fill="#1e293b" stroke="#00f0ff" filter="url(#glow)" stroke-width="2.5" />
    
    <!-- Shield Arcs -->
    <!-- Red (0 to 90 deg) -->
    <path d="M 0 -35 A 35 35 0 0 1 35 0" fill="none" stroke="#ff007f" stroke-width="8" stroke-linecap="round" filter="url(#glowColor)" />
    <!-- Yellow (90 to 180 deg) -->
    <path d="M 35 0 A 35 35 0 0 1 0 35" fill="none" stroke="#eab308" stroke-width="8" stroke-linecap="round" filter="url(#glowColor)" />
    <!-- Green (180 to 270 deg) -->
    <path d="M 0 35 A 35 35 0 0 1 -35 0" fill="none" stroke="#39ff14" stroke-width="8" stroke-linecap="round" filter="url(#glowColor)" />
    <!-- Blue (270 to 360 deg) -->
    <path d="M -35 0 A 35 35 0 0 1 0 -35" fill="none" stroke="#00f0ff" stroke-width="8" stroke-linecap="round" filter="url(#glowColor)" />

    <!-- Incoming Lasers -->
    <g filter="url(#glowColor)">
      <line x1="0" y1="-150" x2="0" y2="-75" stroke="#ff007f" filter="url(#glow)" stroke-width="5" stroke-linecap="round" />
      <line x1="-150" y1="0" x2="-75" y2="0" stroke="#39ff14" filter="url(#glow)" stroke-width="5" stroke-linecap="round" />
      <line x1="150" y1="0" x2="75" y2="0" stroke="#eab308" stroke-width="5" stroke-linecap="round" />
    </g>
  </g>
</svg>
