<svg xmlns="http://www.w3.org/2000/svg" viewBox="0 0 800 450" width="100%" height="100%">
  <defs>
    <!-- 背景グラデーション -->
    <linearGradient id="bgGrad" x1="0%" y1="0%" x2="100%" y2="100%">
      <stop offset="0%" stop-color="#070714" />
      <stop offset="50%" stop-color="#0b0f19" />
      <stop offset="100%" stop-color="#140c1e" />
    </linearGradient>
    <!-- コーナーネオン漏れ光 -->
    <radialGradient id="cyanLeak" cx="0%" cy="0%" r="60%">
      <stop offset="0%" stop-color="#00f0ff" stop-opacity="0.25" />
      <stop offset="100%" stop-color="#00f0ff" stop-opacity="0" />
    </radialGradient>
    <radialGradient id="magentaLeak" cx="100%" cy="0%" r="60%">
      <stop offset="0%" stop-color="#ff007f" stop-opacity="0.2" />
      <stop offset="100%" stop-color="#ff007f" stop-opacity="0" />
    </radialGradient>
    <!-- ネオングロー効果 -->
    <filter id="glow" x="-30%" y="-30%" width="160%" height="160%">
      <feGaussianBlur stdDeviation="8" result="blur1" />
      <feGaussianBlur stdDeviation="3" result="blur2" />
      <feMerge>
        <feMergeNode in="blur1" />
        <feMergeNode in="blur2" />
        <feMergeNode in="SourceGraphic" />
      </feMerge>
    </filter>
  </defs>

  <!-- 背景 -->
  <rect width="400" height="250" fill="url(#bgGrad)" />
  
  <!-- コーナー発光オーラ -->
  <rect width="400" height="250" fill="url(#cyanLeak)" pointer-events-none="true" />
  <rect width="400" height="250" fill="url(#magentaLeak)" pointer-events-none="true" />

  <!-- 3Dパースペクティブグリッド（遠近感のある電脳空間） -->
  <g stroke="#1e293b" stroke-width="0.75" opacity="0.35">
    <!-- 地平線 -->
    <line x1="0" y1="120" x2="400" y2="120" stroke="#334155" stroke-width="1" />
    <!-- 消失点(200, 120)に向かうパースライン -->
    <line x1="-100" y1="250" x2="200" y2="120" />
    <line x1="-20" y1="250" x2="200" y2="120" />
    <line x1="60" y1="250" x2="200" y2="120" />
    <line x1="130" y1="250" x2="200" y2="120" />
    <line x1="200" y1="250" x2="200" y2="120" />
    <line x1="270" y1="250" x2="200" y2="120" />
    <line x1="340" y1="250" x2="200" y2="120" />
    <line x1="420" y1="250" x2="200" y2="120" />
    <line x1="500" y1="250" x2="200" y2="120" />
    
    <!-- 横方向のグリッド間隔 (手前ほど広く) -->
    <line x1="0" y1="130" x2="400" y2="130" />
    <line x1="0" y1="145" x2="400" y2="145" />
    <line x1="0" y1="165" x2="400" y2="165" />
    <line x1="0" y1="190" x2="400" y2="190" />
    <line x1="0" y1="220" x2="400" y2="220" />
  </g>
  
  <!-- 外枠ボーダー -->
  <rect width="400" height="250" fill="none" stroke="#334155" stroke-width="2" />
  
  <rect width="800" height="450" fill="url(#bgGrad)" />

  <!-- パズルボード -->
  <g stroke="#1e293b" stroke-width="1.5" fill="none">
    <rect x="250" y="70" width="300" height="225" rx="8" stroke-width="3" />
    <!-- グリッド分割 -->
    <line x1="350" y1="70" x2="350" y2="295" />
    <line x1="450" y1="70" x2="450" y2="295" />
    <line x1="250" y1="145" x2="550" y2="145" />
    <line x1="250" y1="220" x2="550" y2="220" />
  </g>

  <!-- パズルの中に浮き上がる幾何学模様 -->
  <g filter="url(#glowGold)">
    <circle cx="400" cy="182" r="65" stroke="#00f0ff" filter="url(#glow)" stroke-width="3" fill="none" />
    <polygon points="400,105 440,150 480,182 400,260 320,182 360,150" stroke="#ec4899" stroke-width="2.5" fill="none" />
    
    <!-- 浮き上がってドラッグされているピース (右下に少しずれている) -->
    <g transform="translate(460, 155)" filter="url(#glowGold)">
      <!-- 影 -->
      <rect x="4" y="4" width="90" height="70" rx="4" fill="rgba(0,0,0,0.5)" />
      <!-- 本体 -->
      <rect width="90" height="70" rx="4" fill="#0f172a" stroke="#fbbf24" stroke-width="3.5" />
      <!-- ピース内のラインの一部 -->
      <path d="M 10,65 A 65,65 0 0,0 75,10" stroke="#00f0ff" filter="url(#glow)" stroke-width="3" fill="none" />
    </g>
  </g>

  <!-- テキスト -->
</svg>
