<svg xmlns="http://www.w3.org/2000/svg" viewBox="0 0 400 300" width="100%" height="100%">
  <defs>
    <!-- 背景グラデーション -->
    <linearGradient id="bgGrad" x1="0%" y1="0%" x2="100%" y2="100%">
      <stop offset="0%" stop-color="#070714" />
      <stop offset="50%" stop-color="#0b0f19" />
      <stop offset="100%" stop-color="#140c1e" />
    </linearGradient>
    <!-- コーナーネオン漏れ光 -->
    <radialGradient id="cyanLeak" cx="0%" cy="0%" r="60%">
      <stop offset="0%" stop-color="#00f0ff" stop-opacity="0.25" />
      <stop offset="100%" stop-color="#00f0ff" stop-opacity="0" />
    </radialGradient>
    <radialGradient id="magentaLeak" cx="100%" cy="0%" r="60%">
      <stop offset="0%" stop-color="#ff007f" stop-opacity="0.2" />
      <stop offset="100%" stop-color="#ff007f" stop-opacity="0" />
    </radialGradient>
    <!-- ネオングロー効果 -->
    <filter id="glow" x="-30%" y="-30%" width="160%" height="160%">
      <feGaussianBlur stdDeviation="8" result="blur1" />
      <feGaussianBlur stdDeviation="3" result="blur2" />
      <feMerge>
        <feMergeNode in="blur1" />
        <feMergeNode in="blur2" />
        <feMergeNode in="SourceGraphic" />
      </feMerge>
    </filter>
  </defs>

  <!-- 背景 -->
  <rect width="400" height="250" fill="url(#bgGrad)" />
  
  <!-- コーナー発光オーラ -->
  <rect width="400" height="250" fill="url(#cyanLeak)" pointer-events-none="true" />
  <rect width="400" height="250" fill="url(#magentaLeak)" pointer-events-none="true" />

  <!-- 3Dパースペクティブグリッド（遠近感のある電脳空間） -->
  <g stroke="#1e293b" stroke-width="0.75" opacity="0.35">
    <!-- 地平線 -->
    <line x1="0" y1="120" x2="400" y2="120" stroke="#334155" stroke-width="1" />
    <!-- 消失点(200, 120)に向かうパースライン -->
    <line x1="-100" y1="250" x2="200" y2="120" />
    <line x1="-20" y1="250" x2="200" y2="120" />
    <line x1="60" y1="250" x2="200" y2="120" />
    <line x1="130" y1="250" x2="200" y2="120" />
    <line x1="200" y1="250" x2="200" y2="120" />
    <line x1="270" y1="250" x2="200" y2="120" />
    <line x1="340" y1="250" x2="200" y2="120" />
    <line x1="420" y1="250" x2="200" y2="120" />
    <line x1="500" y1="250" x2="200" y2="120" />
    
    <!-- 横方向のグリッド間隔 (手前ほど広く) -->
    <line x1="0" y1="130" x2="400" y2="130" />
    <line x1="0" y1="145" x2="400" y2="145" />
    <line x1="0" y1="165" x2="400" y2="165" />
    <line x1="0" y1="190" x2="400" y2="190" />
    <line x1="0" y1="220" x2="400" y2="220" />
  </g>
  
  <!-- 外枠ボーダー -->
  <rect width="400" height="250" fill="none" stroke="#334155" stroke-width="2" />
  
  <rect width="400" height="300" fill="#090d16" />
  <rect width="380" height="280" x="10" y="10" rx="15" fill="#0f172a" stroke="#39ff14" filter="url(#glow)" stroke-width="1.5" opacity="0.3" />

  <!-- 配線パズルイラスト -->
  <g transform="translate(110, 30)">
    <!-- ボード枠 -->
    <rect width="180" height="150" fill="none" stroke="rgba(255,255,255,0.05)" stroke-width="1.5" rx="4" />
    
    <!-- グリッド線 -->
    <line x1="45" y1="0" x2="45" y2="150" stroke="rgba(255,255,255,0.02)" stroke-width="1" />
    <line x1="90" y1="0" x2="90" y2="150" stroke="rgba(255,255,255,0.02)" stroke-width="1" />
    <line x1="135" y1="0" x2="135" y2="150" stroke="rgba(255,255,255,0.02)" stroke-width="1" />
    <line x1="0" y1="37.5" x2="180" y2="37.5" stroke="rgba(255,255,255,0.02)" stroke-width="1" />
    <line x1="0" y1="75" x2="180" y2="75" stroke="rgba(255,255,255,0.02)" stroke-width="1" />
    <line x1="0" y1="112.5" x2="180" y2="112.5" stroke="rgba(255,255,255,0.02)" stroke-width="1" />

    <!-- パス 1: 赤 (角を曲がる) -->
    <path d="M 22.5, 18.75 L 22.5, 93.75 L 112.5, 93.75" fill="none" stroke="#ff007f" stroke-width="8" stroke-linecap="round" stroke-linejoin="round" filter="url(#glow)" />
    <circle cx="22.5" cy="18.75" r="10" fill="#ff007f" filter="url(#glow)" />
    <circle cx="112.5" cy="93.75" r="10" fill="#ff007f" filter="url(#glow)" />

    <!-- パス 2: 青 (ストレート) -->
    <line x1="67.5" y1="18.75" x2="67.5" y2="131.25" stroke="#00f2fe" stroke-width="8" stroke-linecap="round" filter="url(#glow)" />
    <circle cx="67.5" cy="18.75" r="10" fill="#00f2fe" filter="url(#glow)" />
    <circle cx="67.5" cy="131.25" r="10" fill="#00f2fe" filter="url(#glow)" />

    <!-- パス 3: 緑 -->
    <path d="M 112.5, 18.75 L 157.5, 18.75 L 157.5, 131.25" fill="none" stroke="#39ff14" stroke-width="8" stroke-linecap="round" stroke-linejoin="round" filter="url(#glow)" />
    <circle cx="112.5" cy="18.75" r="10" fill="#39ff14" filter="url(#glow)" />
    <circle cx="157.5" cy="131.25" r="10" fill="#39ff14" filter="url(#glow)" />
  </g>

  <!-- テキスト -->
</svg>
