<svg xmlns="http://www.w3.org/2000/svg" viewBox="0 0 800 450" width="100%" height="100%">
  <defs>
    <!-- 背景グラデーション -->
    <linearGradient id="bgGrad" x1="0%" y1="0%" x2="100%" y2="100%">
      <stop offset="0%" stop-color="#070714" />
      <stop offset="50%" stop-color="#0b0f19" />
      <stop offset="100%" stop-color="#140c1e" />
    </linearGradient>
    <!-- コーナーネオン漏れ光 -->
    <radialGradient id="cyanLeak" cx="0%" cy="0%" r="60%">
      <stop offset="0%" stop-color="#00f0ff" stop-opacity="0.25" />
      <stop offset="100%" stop-color="#00f0ff" stop-opacity="0" />
    </radialGradient>
    <radialGradient id="magentaLeak" cx="100%" cy="0%" r="60%">
      <stop offset="0%" stop-color="#ff007f" stop-opacity="0.2" />
      <stop offset="100%" stop-color="#ff007f" stop-opacity="0" />
    </radialGradient>
    <!-- ネオングロー効果 -->
    <filter id="glow" x="-30%" y="-30%" width="160%" height="160%">
      <feGaussianBlur stdDeviation="8" result="blur1" />
      <feGaussianBlur stdDeviation="3" result="blur2" />
      <feMerge>
        <feMergeNode in="blur1" />
        <feMergeNode in="blur2" />
        <feMergeNode in="SourceGraphic" />
      </feMerge>
    </filter>
  </defs>

  <!-- 背景 -->
  <rect width="400" height="250" fill="url(#bgGrad)" />
  
  <!-- コーナー発光オーラ -->
  <rect width="400" height="250" fill="url(#cyanLeak)" pointer-events-none="true" />
  <rect width="400" height="250" fill="url(#magentaLeak)" pointer-events-none="true" />

  <!-- 3Dパースペクティブグリッド（遠近感のある電脳空間） -->
  <g stroke="#1e293b" stroke-width="0.75" opacity="0.35">
    <!-- 地平線 -->
    <line x1="0" y1="120" x2="400" y2="120" stroke="#334155" stroke-width="1" />
    <!-- 消失点(200, 120)に向かうパースライン -->
    <line x1="-100" y1="250" x2="200" y2="120" />
    <line x1="-20" y1="250" x2="200" y2="120" />
    <line x1="60" y1="250" x2="200" y2="120" />
    <line x1="130" y1="250" x2="200" y2="120" />
    <line x1="200" y1="250" x2="200" y2="120" />
    <line x1="270" y1="250" x2="200" y2="120" />
    <line x1="340" y1="250" x2="200" y2="120" />
    <line x1="420" y1="250" x2="200" y2="120" />
    <line x1="500" y1="250" x2="200" y2="120" />
    
    <!-- 横方向のグリッド間隔 (手前ほど広く) -->
    <line x1="0" y1="130" x2="400" y2="130" />
    <line x1="0" y1="145" x2="400" y2="145" />
    <line x1="0" y1="165" x2="400" y2="165" />
    <line x1="0" y1="190" x2="400" y2="190" />
    <line x1="0" y1="220" x2="400" y2="220" />
  </g>
  
  <!-- 外枠ボーダー -->
  <rect width="400" height="250" fill="none" stroke="#334155" stroke-width="2" />
  
  <rect width="800" height="450" fill="url(#bgGrad)" />
  <!-- 星背景 -->
  <g fill="#94a3b8" opacity="0.3">
    <circle cx="150" cy="80" r="1.5" /><circle cx="650" cy="120" r="1" /><circle cx="300" cy="220" r="2" /><circle cx="500" cy="70" r="1.5" />
  </g>
  <!-- インベーダー (ネオングリーン・ドット絵風) -->
  <g filter="url(#glowGreen)" fill="#39ff14" transform="translate(360, 60)">
    <!-- 簡易インベーダーパス -->
    <path d="M 12,0 L 20,0 L 20,8 L 28,8 L 28,16 L 36,16 L 36,24 L 28,24 L 28,32 L 20,32 L 20,24 L 12,24 L 12,32 L 4,32 L 4,24 L -4,24 L -4,32 L -12,32 L -12,24 L -20,24 L -20,32 L -28,32 L -28,24 L -36,24 L -36,16 L -28,16 L -28,8 L -20,8 L -20,0 L -12,0 L -12,8 L -4,8 L -4,16 L 12,16 L 12,8 Z" />
    <circle cx="-12" cy="16" r="3" fill="#0f172a" />
    <circle cx="12" cy="16" r="3" fill="#0f172a" />
  </g>
  <!-- レーザー光線 (ネオンレッド) -->
  <line x1="380" y1="130" x2="380" y2="240" stroke="#ff007f" stroke-width="4" stroke-linecap="round" filter="url(#glowBlue)" />
  <!-- 自機プレイヤーシップ (ネオンブルー) -->
  <g fill="#1e3a8a" stroke="#00f0ff" filter="url(#glow)" stroke-width="2.5" transform="translate(380, 270)">
    <polygon points="0,-25 18,10 -18,10" />
    <rect x="-8" y="10" width="16" height="6" />
    <line x1="0" y1="-25" x2="0" y2="10" stroke="#00f0ff" filter="url(#glow)" stroke-width="1.5" />
  </g>
  <!-- テキスト -->
</svg>
